<?xml version="1.0" encoding="UTF-8" standalone="no"?>
<!-- Created with Inkscape (http://www.inkscape.org/) -->

<svg
   width="150mm"
   height="150mm"
   viewBox="0 0 149.99999 150"
   version="1.1"
   id="svg1"
   xml:space="preserve"
   xmlns="http://www.w3.org/2000/svg"
   xmlns:svg="http://www.w3.org/2000/svg"><defs
     id="defs1" /><g
     id="layer1"
     transform="translate(-33.140075,-82.196287)"><path
       style="fill:#000000"
       d="m 107.51962,206.05725 c -0.24084,-0.26612 -0.43789,-0.72391 -0.43789,-1.01732 0,-0.29341 0.24627,-0.75634 0.54725,-1.02873 0.49967,-0.45219 0.60878,-0.46072 1.2549,-0.0981 0.38921,0.21846 0.74812,0.60732 0.79758,0.86413 0.0494,0.25682 -0.10128,0.75874 -0.33496,1.11539 -0.23369,0.35665 -0.64181,0.64845 -0.90694,0.64845 -0.26513,0 -0.67911,-0.21774 -0.91994,-0.48386 z m -50.892296,-3.12628 c -0.102231,-0.26641 0.02319,-0.57419 0.323457,-0.79375 0.269739,-0.19724 0.639245,-0.35861 0.821124,-0.35861 0.18188,0 0.401591,0.11472 0.488248,0.25493 0.08666,0.14021 -0.08491,0.4974 -0.38126,0.79375 -0.29635,0.29635 -0.661617,0.53882 -0.811705,0.53882 -0.150088,0 -0.348028,-0.19581 -0.439864,-0.43514 z m 102.642106,0.10441 c -0.14553,-0.1819 -0.34354,-0.5886 -0.44003,-0.90378 -0.0965,-0.31517 -0.0615,-0.64345 0.0777,-0.72949 0.13923,-0.0861 0.56079,-0.0395 0.93681,0.10347 0.39042,0.14844 0.68366,0.46701 0.68366,0.74273 0,0.26554 -0.14288,0.62567 -0.3175,0.8003 -0.17463,0.17462 -0.39817,0.3175 -0.49677,0.3175 -0.0986,0 -0.29834,-0.14883 -0.44387,-0.33073 z m -100.275379,-1.8253 c -0.228867,-0.22886 -0.207583,-0.49028 0.08617,-1.05833 0.214561,-0.41492 0.49352,-0.75439 0.619909,-0.75439 0.126389,0 0.865408,-0.58746 1.642265,-1.30546 0.776857,-0.718 1.465383,-1.25254 1.530057,-1.18786 0.06467,0.0647 -0.178898,0.44377 -0.54127,0.84243 -0.362373,0.39867 -0.863488,1.0225 -1.113589,1.3863 -0.250102,0.36381 -0.700836,1.04842 -1.001633,1.52136 -0.300796,0.47294 -0.630392,0.85989 -0.732435,0.85989 -0.102042,0 -0.322306,-0.13677 -0.489474,-0.30394 z m 98.642649,-0.33396 c -0.23476,-0.28287 -0.23544,-0.41929 -0.003,-0.56306 0.16885,-0.10436 0.41094,-0.0257 0.53796,0.17488 0.12702,0.20054 0.23277,0.45392 0.235,0.56306 0.002,0.10914 -0.10043,0.19844 -0.22813,0.19844 -0.12771,0 -0.37161,-0.16799 -0.54202,-0.37332 z m -50.0323,-1.08972 c -0.25683,-0.30946 -0.26579,-0.55855 -0.0381,-1.05834 0.16379,-0.35949 0.47621,-0.65362 0.69426,-0.65362 0.21804,0 0.59187,0.29825 0.83072,0.66278 0.34996,0.53411 0.37054,0.73958 0.10599,1.05834 -0.18055,0.21755 -0.53724,0.39555 -0.79265,0.39555 -0.2554,0 -0.61552,-0.18212 -0.80025,-0.40471 z m 48.73754,0.0653 c -0.15493,-0.18667 -0.40468,-0.66292 -0.55502,-1.05834 -0.18889,-0.49682 -0.18824,-0.71893 0.002,-0.71893 0.15149,0 0.50573,0.12325 0.7872,0.27389 0.32931,0.17624 0.51178,0.55357 0.51178,1.05834 0,0.43144 -0.10449,0.78444 -0.23219,0.78444 -0.1277,0 -0.35894,-0.15273 -0.51386,-0.3394 z m -92.192348,-2.63111 c -0.796024,-0.46137 -1.08231,-0.85188 -1.427634,-1.94737 l -0.431942,-1.37028 0.570382,-1.17825 c 0.313711,-0.64804 0.866334,-1.33664 1.228053,-1.53023 0.361719,-0.19359 1.164201,-0.3336 1.783294,-0.31115 0.619092,0.0225 1.423279,0.0721 1.787081,0.11025 0.494418,0.0519 0.681134,-0.0681 0.739372,-0.47528 0.0477,-0.33344 -0.322742,-1.00044 -0.955139,-1.71979 -0.56818,-0.64631 -1.333501,-1.77041 -1.700715,-2.49802 -0.367213,-0.7276 -0.970664,-2.28431 -1.341001,-3.45936 -0.370337,-1.17504 -0.808745,-3.12538 -0.97424,-4.33408 -0.165495,-1.20871 -0.227489,-2.98575 -0.137764,-3.94898 0.08972,-0.96323 0.344258,-2.6443 0.56563,-3.7357 0.235437,-1.16075 0.950436,-3.11991 1.722659,-4.72023 1.169634,-2.42391 1.612447,-3.02869 3.883494,-5.30399 2.255903,-2.26014 2.886219,-2.72532 5.255601,-3.87873 1.48075,-0.72083 2.701139,-1.45943 2.711979,-1.64133 0.01084,-0.1819 -0.240578,-0.33073 -0.558701,-0.33073 -0.318125,0 -1.358457,-0.19563 -2.311849,-0.43473 -0.953392,-0.2391 -2.850447,-0.95317 -4.215679,-1.58681 -1.365232,-0.63365 -3.229099,-1.68504 -4.141927,-2.33642 -0.912828,-0.65138 -2.297598,-1.89019 -3.077266,-2.75292 -0.779669,-0.86272 -1.988142,-2.514 -2.685496,-3.66951 -0.697354,-1.15551 -1.686507,-3.06912 -2.198118,-4.25247 -0.511612,-1.18335 -1.151859,-3.13685 -1.422773,-4.34111 -0.270913,-1.20426 -0.628789,-2.90395 -0.795279,-3.77707 -0.16649,-0.87313 -0.46909,-2.48047 -0.672445,-3.57188 -0.203356,-1.0914 -0.503391,-4.1275 -0.666746,-6.74687 -0.163355,-2.61938 -0.343258,-5.00063 -0.399784,-5.29167 -0.05653,-0.29104 -0.468238,-0.73483 -0.914915,-0.98619 -0.446677,-0.25136 -0.985786,-0.87262 -1.19802,-1.38056 -0.212233,-0.50795 -0.385879,-1.32095 -0.385879,-1.80668 0,-0.52647 0.269312,-1.25118 0.666832,-1.79444 0.366758,-0.50121 0.865764,-1.06012 1.108903,-1.24202 0.24314,-0.1819 1.036072,-0.33073 1.762073,-0.33073 1.223797,0 1.400812,0.0868 2.428764,1.19062 l 1.108762,1.19063 h 1.859999 c 1.023,0 3.213856,0.23145 4.868569,0.51434 1.654713,0.28289 4.29097,0.93442 5.858349,1.44786 1.567379,0.51343 4.303245,1.62995 6.079702,2.48115 1.776458,0.8512 4.244614,2.20356 5.484793,3.00526 1.240179,0.80169 2.66893,1.81851 3.175,2.25961 0.605575,0.52782 1.339347,0.8637 2.146427,0.98249 0.67447,0.0993 1.40536,0.38361 1.6242,0.63187 0.218851,0.24826 0.47556,0.81744 0.57047,1.26486 0.10551,0.49741 0.745621,1.37122 1.64746,2.24896 0.81119,0.78951 2.54845,2.67646 3.86057,4.19322 1.31213,1.51676 2.92,3.58372 3.573057,4.59325 0.653055,1.00953 1.696825,2.9257 2.319495,4.25816 0.62266,1.33246 1.26321,2.8969 1.42344,3.47654 0.16023,0.57964 0.40859,1.23248 0.55192,1.45076 0.2132,0.32469 0.26134,0.29258 0.26466,-0.1765 0.002,-0.31536 0.2404,-1.12477 0.52928,-1.79869 0.28888,-0.67393 0.89567,-1.76373 1.34842,-2.42178 0.45275,-0.65806 0.78195,-1.22225 0.73154,-1.25376 -0.0504,-0.0315 -0.57666,-0.38198 -1.16945,-0.7788 -0.59279,-0.39682 -1.33749,-1.18354 -1.65488,-1.74826 -0.3174,-0.56473 -0.65224,-1.57511 -0.7441,-2.24529 -0.11707,-0.85414 -0.0314,-1.57373 0.28663,-2.40637 0.26344,-0.68979 0.89609,-1.56658 1.50885,-2.09107 l 1.05519,-0.90321 -0.82622,-2.47303 c -0.45442,-1.36017 -1.2477,-3.24694 -1.76283,-4.19282 -0.51514,-0.94589 -1.39531,-2.31511 -1.95593,-3.04271 -0.56062,-0.7276 -1.660585,-2.02967 -2.444372,-2.89347 l -1.42508,-1.57055 -0.81224,0.57836 c -0.44673,0.3181 -1.06557,0.57837 -1.3752,0.57837 -0.30963,0 -0.95771,-0.16494 -1.44017,-0.36652 -0.48246,-0.20159 -1.13348,-0.78119 -1.44671,-1.288 -0.31323,-0.50682 -0.569509,-1.23868 -0.569509,-1.62636 0,-0.38768 0.16417,-1.09777 0.364819,-1.57799 0.200641,-0.48021 0.69295,-1.13123 1.09401,-1.44671 0.42468,-0.33405 1.10651,-0.57359 1.6327,-0.57359 0.49693,0 1.24426,0.17622 1.66075,0.39159 0.41649,0.21537 1.00589,0.70768 1.30978,1.09401 0.37446,0.47605 0.55253,1.08628 0.55253,1.89347 0,1.08025 0.11284,1.29226 1.213227,2.27942 0.667265,0.59861 1.846845,1.86229 2.621275,2.80818 0.77443,0.94588 1.99527,2.86304 2.71297,4.26034 0.78836,1.53484 1.49863,3.39396 1.79424,4.69636 l 0.48931,2.1558 h 1.22143 1.22143 l 0.33535,-1.99578 c 0.22503,-1.33919 0.72249,-2.76913 1.51211,-4.34647 0.64722,-1.29288 1.70015,-3.04695 2.33986,-3.89795 0.6397,-0.85099 1.79817,-2.1472 2.57438,-2.88047 0.77621,-0.73326 1.62506,-1.45236 1.88634,-1.598 0.39934,-0.22259 0.4297,-0.38411 0.1905,-1.01326 -0.20375,-0.53591 -0.20259,-0.99686 0.004,-1.62317 0.15878,-0.48108 0.70228,-1.23784 1.20778,-1.68168 0.65651,-0.57642 1.18826,-0.80697 1.86125,-0.80697 0.51819,0 1.27673,0.19763 1.68565,0.43919 0.40891,0.24155 0.99283,0.88284 1.29759,1.42508 0.30476,0.54225 0.55149,1.26735 0.54829,1.61134 -0.003,0.34398 -0.23196,1.12355 -0.50837,1.73236 -0.30113,0.66327 -0.82378,1.27304 -1.30397,1.52136 -0.44077,0.22793 -1.08736,0.41442 -1.43687,0.41442 -0.34951,0 -1.03454,-0.26894 -1.5223,-0.59763 l -0.88682,-0.59764 -1.80644,1.72211 c -0.99354,0.94717 -2.28024,2.37696 -2.85933,3.17732 -0.5791,0.80037 -1.29815,1.99099 -1.59791,2.64584 -0.29975,0.65484 -0.70788,1.54781 -0.90695,1.98437 -0.19908,0.43657 -0.50507,1.71594 -0.67998,2.84306 l -0.31802,2.04931 0.70606,0.55539 c 0.38833,0.30546 0.94309,1.02 1.23279,1.58787 0.2897,0.56786 0.5972,1.54661 0.68333,2.17501 0.12528,0.91401 0.0173,1.41741 -0.53982,2.51686 -0.41168,0.81241 -1.13383,1.69119 -1.7662,2.14928 -0.58838,0.42621 -1.18881,0.81462 -1.3343,0.86311 -0.14549,0.0485 0.16267,0.79761 0.6848,1.66469 0.52213,0.86709 1.07148,2.05515 1.22078,2.64014 0.14931,0.58499 0.33312,1.24221 0.40848,1.46049 0.11094,0.32133 0.19473,0.29615 0.44016,-0.13229 0.16673,-0.29104 0.85421,-1.80013 1.52773,-3.35353 0.67352,-1.5534 1.73056,-3.67604 2.34896,-4.71697 0.61841,-1.04093 2.01532,-3.07534 3.10425,-4.5209 1.08893,-1.44557 2.92357,-3.62526 4.07698,-4.84375 1.49595,-1.58037 2.09711,-2.40949 2.09711,-2.89234 0,-0.40158 0.24212,-0.84707 0.59531,-1.09532 0.32742,-0.23014 1.05418,-0.54247 1.61501,-0.69406 0.56084,-0.1516 1.93005,-0.89913 3.04271,-1.66118 1.11266,-0.76205 2.73739,-1.81279 3.61051,-2.33498 0.87313,-0.52219 3.01625,-1.57239 4.7625,-2.33379 1.74625,-0.76139 4.00844,-1.6582 5.02708,-1.9929 1.01865,-0.3347 2.58942,-0.7977 3.49061,-1.02888 0.90119,-0.23119 2.98478,-0.65185 4.63021,-0.9348 1.64542,-0.28296 3.67629,-0.53996 4.51304,-0.57112 0.93071,-0.0347 1.52135,-0.17394 1.52135,-0.35876 0,-0.16615 0.35456,-0.64178 0.7879,-1.05695 0.61121,-0.58557 1.1007,-0.77996 2.18281,-0.86681 1.14714,-0.0921 1.55872,-6.3e-4 2.3171,0.51485 0.50721,0.34475 1.071,0.9209 1.25287,1.28034 0.18188,0.35943 0.33244,1.15673 0.33459,1.77176 0.003,0.97928 -0.15652,1.28644 -1.28697,2.47165 l -1.29087,1.35339 -0.1686,2.15857 c -0.0927,1.18721 -0.35282,3.64684 -0.57797,5.46585 -0.22515,1.81901 -0.65526,4.43839 -0.9558,5.82084 -0.30054,1.38245 -0.60339,2.66237 -0.67301,2.84427 -0.0921,0.24059 0.28248,0.33073 1.37433,0.33073 0.8255,0 1.73121,0.12325 2.01268,0.27389 0.28148,0.15064 0.51178,0.38877 0.51178,0.52917 0,0.1404 -0.83038,0.25527 -1.84529,0.25527 h -1.84529 l -0.37438,0.72761 c -0.20591,0.40018 -0.63782,1.62057 -0.95979,2.71197 -0.32198,1.09141 -0.99484,2.87483 -1.49526,3.96315 -0.50041,1.08833 -1.1292,2.21942 -1.3973,2.51354 -0.26811,0.29413 -0.69703,0.95149 -0.95316,1.46082 -0.25613,0.50932 -1.17837,1.75947 -2.04942,2.77812 -0.87104,1.01865 -1.95533,2.15969 -2.40952,2.53565 -0.45419,0.37596 -1.65924,1.17412 -2.67789,1.77369 -1.01864,0.59957 -3.11732,1.51236 -4.66371,2.02842 -1.5464,0.51605 -3.26686,0.93828 -3.82323,0.93828 -0.63291,0 -0.9175,0.0931 -0.76024,0.24856 0.13824,0.13671 1.20385,0.72746 2.36802,1.31279 1.16416,0.58533 2.9501,1.70246 3.96875,2.48252 1.01864,0.78006 2.47414,2.1836 3.23444,3.11898 0.76029,0.93539 1.79196,2.53579 2.2926,3.55645 0.50063,1.02067 1.18636,2.9852 1.52385,4.36563 0.46825,1.91524 0.61362,3.26208 0.61362,5.68487 0,2.4088 -0.14577,3.77085 -0.60405,5.6441 -0.33222,1.35801 -0.89155,3.08441 -1.24295,3.83646 -0.3514,0.75205 -1.11948,2.13308 -1.70685,3.06896 -0.58738,0.93589 -1.06795,1.85002 -1.06795,2.03141 0,0.24018 0.38216,0.29035 1.40649,0.18463 1.01593,-0.10485 1.63918,-0.0248 2.24448,0.28818 0.46089,0.23834 1.01859,0.7826 1.23934,1.20947 0.22074,0.42688 0.40135,1.26421 0.40135,1.86075 0,0.59653 -0.16692,1.4074 -0.37093,1.80192 -0.20402,0.39452 -0.87044,0.99805 -1.48094,1.34117 -0.84346,0.47405 -1.36288,0.58993 -2.16314,0.48259 -0.57923,-0.0777 -1.2947,-0.3597 -1.58993,-0.6267 -0.29523,-0.26699 -0.75545,-0.91388 -1.02272,-1.43753 l -0.48593,-0.95209 -2.03937,-0.17239 c -1.12166,-0.0948 -3.91863,-0.17239 -6.21549,-0.17239 -2.6175,0 -4.84913,-0.14189 -5.97936,-0.38017 -0.99177,-0.20909 -2.65703,-0.72805 -3.70057,-1.15324 -1.04353,-0.42519 -2.42562,-1.08267 -3.07131,-1.46106 -0.64569,-0.3784 -2.12957,-1.39653 -3.29752,-2.26252 -1.17245,-0.86931 -2.77027,-2.38508 -3.5675,-3.38428 -0.79417,-0.99537 -1.83005,-2.38162 -2.30195,-3.08054 -0.47191,-0.69892 -1.31195,-2.1872 -1.86677,-3.30729 -0.55481,-1.12009 -1.25555,-2.86996 -1.55719,-3.88861 -0.30164,-1.01864 -0.61815,-2.19673 -0.70335,-2.61796 -0.0852,-0.42123 -0.2505,-0.65935 -0.36734,-0.52916 -0.11683,0.13019 -0.36252,1.01061 -0.54598,1.9565 -0.18345,0.94588 -0.68738,2.55323 -1.11985,3.57187 -0.43247,1.01865 -0.98386,2.26033 -1.22531,2.7593 -0.24145,0.49897 -0.6569,1.18471 -0.92321,1.52387 -0.26632,0.33917 -0.58238,0.556 -0.70236,0.48184 -0.11998,-0.0742 -0.57064,-0.75989 -1.00148,-1.52387 -0.43084,-0.76398 -1.08306,-2.22249 -1.44938,-3.24114 -0.36633,-1.01864 -0.80754,-2.53669 -0.98047,-3.37344 -0.17293,-0.83674 -0.39527,-1.52104 -0.49409,-1.52066 -0.0988,3.8e-4 -0.52353,0.98264 -0.94378,2.18281 -0.42025,1.20017 -1.07509,2.75459 -1.45521,3.45427 -0.38011,0.69968 -1.0483,1.89916 -1.48486,2.6655 -0.436557,0.76634 -1.662801,2.54536 -2.724991,3.95338 -1.06219,1.40801 -2.02355,2.56002 -2.13637,2.56002 -0.11282,0 -0.95024,0.64526 -1.86092,1.43392 -0.91069,0.78865 -2.45723,1.85506 -3.43676,2.36978 -0.97952,0.51473 -2.90445,1.31651 -4.277619,1.78173 l -2.496666,0.84586 -6.085416,0.21631 c -3.34698,0.11897 -6.421421,0.29479 -6.832092,0.39072 -0.461201,0.10773 -1.005782,0.56595 -1.42439,1.19851 -0.372744,0.56325 -1.062825,1.2621 -1.533514,1.55301 -0.470689,0.2909 -1.198932,0.52617 -1.618318,0.52283 -0.419386,-0.003 -1.210581,-0.26577 -1.758212,-0.58318 z m 2.656612,-1.93929 c 0.323421,-0.22653 0.588038,-0.66534 0.588038,-0.97513 0,-0.30979 -0.258879,-0.83882 -0.575287,-1.17562 -0.316408,-0.3368 -0.733127,-0.61237 -0.926042,-0.61237 -0.192914,0 -0.588879,0.23813 -0.879921,0.52917 -0.291041,0.29104 -0.529166,0.6917 -0.529166,0.89036 0,0.19865 0.246766,0.6749 0.54837,1.05833 0.301603,0.38343 0.69183,0.69714 0.86717,0.69714 0.17534,0 0.583417,-0.18534 0.906838,-0.41188 z m 85.338756,-0.70495 c 0.4507,-0.60425 0.48802,-0.8275 0.23215,-1.38907 -0.18437,-0.40465 -0.52312,-0.6691 -0.8571,-0.6691 -0.30372,0 -0.76852,0.11576 -1.03287,0.25723 -0.26436,0.14148 -0.55376,0.44776 -0.64312,0.68063 -0.0894,0.23286 -0.026,0.68266 0.14077,0.99954 0.16679,0.31688 0.43425,0.66529 0.59437,0.77425 0.16011,0.10896 0.45709,0.16849 0.65995,0.13229 0.20286,-0.0362 0.61049,-0.3898 0.90585,-0.78577 z m -80.821449,-1.55489 c 0.458277,-0.15975 0.833232,-0.43449 0.833232,-0.61054 0,-0.17604 -0.483559,-0.53341 -1.074576,-0.79417 l -1.074576,-0.4741 -0.512924,0.46419 c -0.282109,0.2553 -0.512925,0.60052 -0.512925,0.76714 0,0.16662 0.142875,0.44583 0.3175,0.62045 0.174625,0.17463 0.514046,0.3175 0.754268,0.3175 0.240223,0 0.811723,-0.13071 1.270001,-0.29047 z m 76.504059,-0.0848 c 0,-0.0609 0.0688,-0.28986 0.15281,-0.50888 0.094,-0.24497 -0.0725,-0.51881 -0.43266,-0.71156 -0.48638,-0.2603 -0.80927,-0.20852 -1.90754,0.30588 -1.20657,0.56513 -1.267,0.63464 -0.69181,0.79584 0.34663,0.0971 1.13626,0.18849 1.75472,0.20299 0.61846,0.0145 1.12448,-0.0234 1.12448,-0.0843 z M 82.210909,191.8788 c 1.091407,-0.19599 2.973642,-0.73897 4.182746,-1.20662 1.209104,-0.46766 3.091164,-1.44742 4.182354,-2.17725 1.10179,-0.73693 2.25536,-1.75687 2.59429,-2.29376 0.33567,-0.53173 0.80274,-1.12649 1.03793,-1.32169 0.38285,-0.31773 0.41248,-1.21769 0.28302,-8.59507 -0.13259,-7.55586 -0.18536,-8.28179 -0.63544,-8.74122 l -0.49085,-0.50104 -5.85597,5.81938 -5.85598,5.81938 0.576616,0.97729 c 0.445421,0.75493 0.545877,1.25001 0.441515,2.1759 -0.08854,0.78555 -0.400813,1.52691 -0.906128,2.15125 -0.43753,0.54058 -1.251705,1.12789 -1.88233,1.35782 -0.931402,0.3396 -1.293343,0.35168 -2.235809,0.0747 -0.618478,-0.18179 -1.270362,-0.35522 -1.448632,-0.38539 -0.178269,-0.0302 -1.337434,0.94965 -2.575921,2.17741 l -2.251795,2.23229 0.459255,0.50785 c 0.25259,0.27931 0.921371,0.74369 1.48618,1.03195 0.564808,0.28827 1.814965,0.68113 2.778125,0.87303 0.963159,0.1919 2.286981,0.35595 2.941824,0.36454 0.654844,0.009 2.083594,-0.14472 3.175,-0.34071 z m 60.721871,-0.65778 c 0.87312,-0.31336 1.88515,-0.8018 2.24896,-1.08541 l 0.66145,-0.51566 -2.62869,-2.46613 -2.62869,-2.46612 -0.93298,0.47566 c -0.51314,0.26162 -1.20929,0.47566 -1.547,0.47566 -0.3377,0 -1.01952,-0.16943 -1.51515,-0.37652 -0.49562,-0.20708 -1.26571,-0.87979 -1.71129,-1.4949 -0.54762,-0.75597 -0.80983,-1.42704 -0.80917,-2.07088 5.5e-4,-0.52387 0.24521,-1.35307 0.54369,-1.84266 l 0.54271,-0.89017 -6.02373,-5.89007 c -5.14579,-5.03162 -6.09092,-5.84811 -6.48479,-5.60213 -0.30165,0.18838 -0.52447,0.79454 -0.64444,1.75316 -0.10085,0.80587 -0.11546,4.62037 -0.0325,8.47667 0.083,3.85631 0.23242,7.21994 0.33204,7.47474 0.0996,0.2548 1.32922,1.30977 2.73242,2.34437 1.40321,1.03461 3.20613,2.21116 4.00649,2.61457 0.80037,0.4034 2.16958,0.92223 3.04271,1.15296 0.87312,0.23072 1.82562,0.47568 2.11667,0.54434 0.29104,0.0687 2.01744,0.0874 3.83646,0.0416 2.56251,-0.0645 3.66478,-0.2116 4.89479,-0.65304 z m -68.98264,-5.89003 1.661106,-1.5399 -0.430793,-0.65747 c -0.236937,-0.36161 -0.430794,-1.05981 -0.430794,-1.55155 0,-0.49174 0.186224,-1.2542 0.413831,-1.69434 0.227606,-0.44014 0.778799,-1.10736 1.224871,-1.4827 0.446073,-0.37535 1.202583,-0.7559 1.681134,-0.84568 0.500312,-0.0939 1.234158,-0.014 1.726739,0.18791 l 0.856648,0.35114 5.938389,-5.90102 5.938388,-5.90102 v -1.03819 c 0,-0.81226 0.14231,-1.13144 0.65392,-1.46666 0.35966,-0.23566 1.18131,-0.56583 1.8259,-0.73371 0.79765,-0.20774 1.62402,-0.7351 2.58723,-1.65108 0.77838,-0.74022 2.159377,-2.14356 3.068881,-3.11854 0.9095,-0.97497 1.65364,-1.88739 1.65364,-2.02759 0,-0.14808 -1.22319,-0.2549 -2.918711,-0.2549 -2.35034,0 -2.94837,0.0773 -3.07101,0.39687 -0.0838,0.21828 -0.26496,0.39688 -0.40266,0.39688 -0.13769,0 -1.16675,0.67195 -2.28679,1.49323 -1.12004,0.82128 -3.34613,2.76571 -4.94686,4.32096 -1.60073,1.55524 -3.188502,2.97653 -3.528388,3.15841 -0.339885,0.18188 -0.65783,0.29083 -0.706545,0.24212 -0.04871,-0.0487 1.360467,-1.5842 3.131513,-3.41219 1.77105,-1.82799 4.16094,-4.08973 5.31087,-5.02609 l 2.09078,-1.70249 -1.16474,-0.0867 c -0.64061,-0.0477 -3.54599,-0.0407 -6.4564,0.0155 l -5.291671,0.10218 -2.50533,0.99012 c -1.377931,0.54457 -3.401994,1.47951 -4.497917,2.07764 -1.365124,0.74506 -2.71029,1.80809 -4.271745,3.37579 -1.797967,1.80516 -2.486334,2.72485 -3.260448,4.35614 -0.53971,1.13733 -1.220062,2.97569 -1.511895,4.08525 -0.377898,1.43678 -0.533959,2.89305 -0.542262,5.06008 -0.0073,1.90324 0.152792,3.78584 0.427468,5.02708 0.241519,1.09141 0.908945,2.95549 1.483169,4.1424 0.574223,1.18691 1.415317,2.5293 1.869097,2.98308 l 0.825055,0.82505 1.097612,-0.97808 c 0.603687,-0.53794 1.84511,-1.67103 2.758718,-2.51798 z M 72.399488,169.557 c -0.623482,-0.55708 -0.855478,-1.02376 -0.95358,-1.91823 -0.103569,-0.94431 -0.0043,-1.36657 0.493825,-2.09955 0.350498,-0.5158 0.968894,-1.01562 1.412426,-1.14158 0.515739,-0.14647 1.155464,-0.10361 1.847292,0.12376 0.854678,0.2809 1.175764,0.58443 1.668583,1.57735 0.564054,1.13645 0.581502,1.29832 0.230499,2.13839 -0.208862,0.49988 -0.70789,1.16699 -1.108951,1.48246 -0.461187,0.36277 -1.10354,0.57359 -1.74768,0.57359 -0.740143,0 -1.243647,-0.20119 -1.842414,-0.73619 z m 2.51374,-1.27649 c 0.267202,-0.10254 0.418515,-0.48335 0.418515,-1.05329 0,-0.73278 -0.119109,-0.92259 -0.664895,-1.05958 -0.381347,-0.0957 -0.832678,-0.0276 -1.058333,0.15965 -0.216392,0.17959 -0.393439,0.58579 -0.393439,0.90267 0,0.31688 0.142875,0.71902 0.3175,0.89365 0.174625,0.17462 0.462543,0.3175 0.639819,0.3175 0.177275,0 0.51065,-0.0723 0.740833,-0.1606 z m 6.651976,0.12572 c -0.572737,-0.45052 -0.682281,-0.70348 -0.544234,-1.25677 0.09506,-0.381 0.360605,-0.90109 0.590102,-1.15575 0.229498,-0.25466 0.630301,-0.46302 0.890674,-0.46302 0.260373,0 0.799319,0.28034 1.197657,0.62298 0.681484,0.58618 0.703648,0.67271 0.375342,1.46532 -0.191901,0.46328 -0.562879,0.95685 -0.824396,1.09681 -0.261517,0.13996 -0.586318,0.25447 -0.721781,0.25447 -0.135463,0 -0.568977,-0.25382 -0.963364,-0.56404 z m -3.587628,-1.28804 c 0,-0.14552 0.47625,-0.26458 1.058333,-0.26458 0.582084,0 1.058334,0.11906 1.058334,0.26458 0,0.14552 -0.47625,0.26458 -1.058334,0.26458 -0.582083,0 -1.058333,-0.11906 -1.058333,-0.26458 z m 70.177294,20.83594 c 0.36007,-0.47294 0.89358,-1.33615 1.18557,-1.91823 0.29199,-0.58208 0.78044,-1.83224 1.08546,-2.77813 0.30502,-0.94588 0.75219,-2.79135 0.99372,-4.10104 0.30642,-1.66162 0.38904,-3.02092 0.27337,-4.49791 -0.0912,-1.16417 -0.4012,-3.04776 -0.68895,-4.18577 -0.28774,-1.138 -1.02333,-3.03045 -1.63463,-4.20545 -0.61131,-1.175 -1.77095,-2.84869 -2.57699,-3.71932 -0.80605,-0.87062 -2.25679,-2.10423 -3.22388,-2.74135 -0.96709,-0.63712 -2.63686,-1.55839 -3.7106,-2.04727 -1.07373,-0.48888 -2.72615,-1.07826 -3.67204,-1.30974 -1.2413,-0.30378 -3.53779,-0.45523 -8.25411,-0.54437 l -6.53432,-0.12349 0.84578,0.72906 c 0.46518,0.401 1.56015,1.29842 2.43328,1.99428 0.87312,0.69586 2.92695,2.51074 4.56406,4.03306 1.63711,1.52233 2.97656,2.93742 2.97656,3.14464 0,0.20721 -0.094,0.37676 -0.20893,0.37676 -0.11491,0 -1.01056,-0.82763 -1.99032,-1.83918 -0.97976,-1.01154 -3.45605,-3.1025 -5.50286,-4.64657 -2.0468,-1.54407 -4.15749,-3.02042 -4.69041,-3.28078 -0.78094,-0.38153 -1.42258,-0.44991 -3.30699,-0.35242 l -2.33806,0.12096 3.36923,3.20637 c 2.43389,2.31624 3.73638,3.35513 4.69173,3.74222 0.9655,0.3912 1.45494,0.78472 1.8131,1.45777 0.26983,0.50705 0.49059,1.21301 0.49059,1.56881 0,0.49289 1.36576,1.98913 5.737,6.28513 l 5.73699,5.63824 0.99762,-0.26863 c 0.70015,-0.18853 1.35436,-0.17881 2.194,0.0326 0.658,0.16568 1.48733,0.5709 1.84294,0.90047 0.35561,0.32957 0.76714,1.0359 0.91451,1.56962 0.19412,0.70303 0.17399,1.3326 -0.073,2.28493 l -0.34098,1.31451 2.62795,2.51005 c 1.44538,1.38052 2.78343,2.51004 2.97346,2.51004 0.19002,0 0.64011,-0.38695 1.00019,-0.85989 z m -6.85862,-18.0482 c -0.46352,-0.2016 -1.02907,-0.72681 -1.25677,-1.16713 -0.2277,-0.44032 -0.41399,-1.11006 -0.41399,-1.48832 0,-0.37825 0.17074,-1.01792 0.37942,-1.42147 0.20869,-0.40355 0.57094,-0.89267 0.80501,-1.08693 0.23406,-0.19426 0.94929,-0.34528 1.5894,-0.3356 0.6401,0.01 1.51786,0.22673 1.95057,0.48234 0.43272,0.25561 0.91596,0.74832 1.07388,1.09492 0.15792,0.3466 0.28713,0.86653 0.28713,1.1554 0,0.28887 -0.17431,0.94239 -0.38735,1.45228 -0.26328,0.63012 -0.6843,1.05114 -1.31442,1.31442 -0.50989,0.21304 -1.13925,0.38269 -1.39858,0.37699 -0.25934,-0.006 -0.85077,-0.1753 -1.3143,-0.3769 z m 2.16088,-1.89468 c 0.23641,-0.23642 0.39375,-0.6829 0.34962,-0.99218 -0.0665,-0.4663 -0.26097,-0.56234 -1.13856,-0.56234 -0.87758,0 -1.07203,0.096 -1.13856,0.56234 -0.0441,0.30928 0.11321,0.75576 0.34963,0.99218 0.23642,0.23642 0.59144,0.42986 0.78893,0.42986 0.1975,0 0.55252,-0.19344 0.78894,-0.42986 z m -10.56352,0.1064 c -0.22653,-0.32342 -0.41188,-0.79503 -0.41188,-1.04802 0,-0.253 0.26058,-0.70276 0.57906,-0.99947 0.31848,-0.29671 0.83581,-0.53947 1.14962,-0.53947 0.31381,0 0.76761,0.21773 1.00844,0.48385 0.24084,0.26612 0.43789,0.78345 0.43789,1.14962 0,0.36617 -0.21774,0.86281 -0.48386,1.10365 -0.26612,0.24083 -0.79515,0.43788 -1.17562,0.43788 -0.41492,0 -0.85661,-0.23534 -1.10365,-0.58804 z m 3.29229,-0.99946 c 0,-0.14552 0.65485,-0.26458 1.45521,-0.26458 0.80036,0 1.45521,0.11906 1.45521,0.26458 0,0.14552 -0.65485,0.26458 -1.45521,0.26458 -0.80036,0 -1.45521,-0.11906 -1.45521,-0.26458 z m -56.085274,15.6745 c 0.287531,-0.36554 0.522783,-0.93016 0.522783,-1.25471 0,-0.32455 -0.246766,-0.90381 -0.54837,-1.28723 -0.350946,-0.44616 -0.806027,-0.69714 -1.264045,-0.69714 -0.393621,0 -0.980292,0.18534 -1.303713,0.41187 -0.428933,0.30044 -0.586942,0.67628 -0.583987,1.38907 0.0022,0.53745 0.09153,1.10315 0.198438,1.2571 0.106912,0.15396 0.469979,0.46822 0.806815,0.69836 0.336836,0.23014 0.845724,0.35743 1.130862,0.28286 0.285138,-0.0746 0.753686,-0.43464 1.041217,-0.80018 z m 17.557363,-1.21988 c 0.81868,-1.21777 1.911317,-3.12927 2.428091,-4.24777 0.51678,-1.1185 1.41029,-3.48565 1.98559,-5.26035 0.57529,-1.77469 1.16175,-3.94108 1.30325,-4.81421 0.1415,-0.87312 0.28928,-3.46284 0.3284,-5.75492 0.0391,-2.29208 0.0116,-4.16686 -0.0612,-4.16618 -0.0728,6.7e-4 -1.56822,1.39976 -3.32324,3.10908 l -3.190941,3.10785 0.10197,1.32292 c 0.0922,1.19613 0.024,1.39739 -0.71166,2.10002 l -0.81362,0.77711 v 8.02029 c 0,4.43047 0.10403,8.02029 0.23242,8.02029 0.12783,0 0.90224,-0.99636 1.72091,-2.21413 z m 41.871371,1.21154 c 0.18913,-0.24894 0.34767,-0.8991 0.35229,-1.44481 0.006,-0.64793 -0.17518,-1.17578 -0.52075,-1.52135 -0.29104,-0.29104 -0.71559,-0.52917 -0.94343,-0.52917 -0.22785,0 -0.67434,0.13851 -0.99219,0.3078 -0.31786,0.1693 -0.72296,0.49672 -0.90023,0.72761 -0.17728,0.23089 -0.32611,0.75638 -0.33073,1.16776 -0.005,0.48182 0.26708,1.02345 0.76584,1.52221 0.68037,0.68038 0.86224,0.74081 1.49979,0.49842 0.39905,-0.15172 0.88028,-0.47953 1.06941,-0.72847 z m -18.75241,-7.30432 c -0.0636,-7.4007 -0.10827,-8.08551 -0.55922,-8.58351 -0.26953,-0.29765 -0.50202,-0.81603 -0.51665,-1.15195 -0.0146,-0.33591 0.0618,-1.05388 0.1699,-1.59548 0.16735,-0.83857 0.10658,-1.06019 -0.40938,-1.49308 -0.33325,-0.27959 -1.77599,-1.50333 -3.20608,-2.71943 -1.4301,-1.21611 -2.68026,-2.2411 -2.77813,-2.27777 -0.0979,-0.0367 -0.10545,1.80879 -0.0168,4.10104 0.11794,3.05098 0.34873,5.01845 0.86131,7.34272 0.38511,1.74625 0.94905,4.00843 1.2532,5.02708 0.30415,1.01864 0.96911,2.68552 1.47768,3.70417 0.50858,1.01864 1.4705,2.71528 2.1376,3.77031 0.6671,1.05502 1.31255,1.91823 1.43434,1.91823 0.12179,0 0.19031,-3.61905 0.15226,-8.04233 z m -11.35084,-0.0275 c 0.49131,-1.48406 0.90068,-3.47782 1.08652,-5.29167 0.164,-1.60073 0.32234,-8.14917 0.35187,-14.55209 l 0.0537,-11.64167 -0.72652,-1.47936 c -0.39959,-0.81366 -0.94834,-1.68011 -1.21945,-1.92547 l -0.49293,-0.44609 -0.93482,1.03474 c -0.63224,0.69981 -1.02971,1.47716 -1.22795,2.40151 -0.18679,0.87097 -0.29312,5.20859 -0.29312,11.95769 0,5.82501 0.12579,12.04016 0.27954,13.81146 0.15375,1.77129 0.57899,4.40654 0.94498,5.85611 0.36598,1.44958 0.72988,2.73987 0.80865,2.86733 0.0788,0.12745 0.24177,0.13207 0.36222,0.0102 0.12044,-0.12182 0.57374,-1.29306 1.00732,-2.60274 z M 99.122889,150.72254 c -2.62099,-2.51616 -3.11442,-2.88215 -3.72369,-2.76196 -0.57226,0.11289 -0.8174,-0.0236 -1.32358,-0.73682 -0.34169,-0.48145 -0.75067,-1.10982 -0.908861,-1.39638 -0.15819,-0.28656 -2.766819,-2.67308 -5.796959,-5.30337 l -5.509357,-4.78236 -1.081045,0.53486 c -0.594576,0.29417 -1.497985,0.53162 -2.00758,0.52766 -0.509592,-0.004 -1.224189,-0.0828 -1.587992,-0.17522 -0.564961,-0.14351 -1.025797,0.17074 -3.158913,2.15406 l -2.497456,2.32208 0.467343,0.98486 c 0.321716,0.67796 0.415813,1.28878 0.301969,1.96019 l -0.165377,0.97534 1.918216,-0.09 c 1.055019,-0.0495 2.573056,-0.008 3.373416,0.0919 1.19797,0.14967 1.368075,0.23057 0.962308,0.45765 -0.307926,0.17232 -1.668392,0.22168 -3.625324,0.13151 -2.87402,-0.13241 -3.132432,-0.10571 -3.132432,0.3237 0,0.25741 0.572357,0.99033 1.271904,1.62871 0.699547,0.63838 2.120514,1.85431 3.157704,2.70208 1.037191,0.84777 2.065418,1.81553 2.28495,2.15058 0.219532,0.33505 0.792862,0.69808 1.274066,0.80674 0.481205,0.10866 5.696949,0.272 11.590539,0.36297 5.893601,0.091 10.765542,0.13532 10.826562,0.0986 0.061,-0.0368 -1.24867,-1.37207 -2.910411,-2.96735 z m -18.608329,-3.4685 c -0.37678,-0.44778 -0.756208,-1.09763 -0.843173,-1.44413 -0.103945,-0.41415 0.0297,-0.89376 0.390088,-1.39987 0.301512,-0.42344 0.908481,-0.91912 1.348819,-1.10151 0.642216,-0.26602 0.959741,-0.26571 1.604903,0.002 0.442358,0.18323 0.978139,0.58135 1.190625,0.88472 0.212486,0.30337 0.386337,0.93267 0.386337,1.39844 0,0.52507 -0.260285,1.15621 -0.684978,1.66092 -0.544879,0.64756 -0.891818,0.81405 -1.696272,0.81405 -0.804478,0 -1.151391,-0.16649 -1.696349,-0.81414 z m 2.192443,-0.74732 c 0.200091,-0.12674 0.363802,-0.54659 0.363802,-0.93301 0,-0.38642 -0.06887,-0.77144 -0.153043,-0.85562 -0.08417,-0.0842 -0.456244,-0.0769 -0.826823,0.0161 -0.475628,0.11938 -0.67378,0.34659 -0.67378,0.77261 0,0.33193 0.142875,0.74638 0.3175,0.921 0.174625,0.17463 0.382985,0.31568 0.463021,0.31345 0.08004,-0.002 0.309232,-0.10775 0.509323,-0.23449 z m 54.633857,6.63612 c 0.41695,-0.17723 1.13133,-0.73259 1.5875,-1.23413 0.45618,-0.50155 1.25565,-1.24408 1.77661,-1.65008 0.52095,-0.406 1.7531,-1.47666 2.73811,-2.37924 l 1.79091,-1.64105 -0.45599,-1.194 -0.45599,-1.194 0.45401,-1.38805 0.454,-1.38805 -0.61945,-0.49509 c -0.3407,-0.2723 -1.53747,-1.38763 -2.65949,-2.4785 l -2.04003,-1.98342 -0.59853,0.41923 c -0.32919,0.23057 -0.94595,0.41922 -1.37057,0.41922 -0.42463,0 -1.28656,-0.25695 -1.91541,-0.57102 l -1.14335,-0.57102 -2.53149,2.35696 c -1.39231,1.29633 -3.27209,2.99114 -4.17728,3.76624 -0.9052,0.7751 -2.66532,2.38245 -3.91139,3.57188 -1.24608,1.18942 -3.15108,2.8398 -4.23334,3.66751 -1.08226,0.8277 -2.65236,2.11715 -3.4891,2.86543 -0.83675,0.74829 -1.52147,1.44029 -1.52162,1.53779 -1.4e-4,0.0975 4.85166,0.11165 10.78177,0.0315 7.58684,-0.10261 11.00669,-0.24132 11.54012,-0.46806 z m -4.15631,-5.63889 c -0.2683,-0.15596 -0.65447,-0.68242 -0.85816,-1.16992 -0.25729,-0.61578 -0.2952,-1.08401 -0.1242,-1.53378 0.13538,-0.35608 0.51828,-0.83802 0.85088,-1.07099 0.33261,-0.23297 0.98833,-0.42357 1.45716,-0.42357 0.50715,0 1.12642,0.24112 1.52891,0.59531 0.37207,0.32742 0.74983,0.97749 0.83946,1.44461 0.13625,0.71013 0.0312,0.98109 -0.64139,1.65364 -0.57984,0.57983 -1.05006,0.80211 -1.6846,0.79631 -0.48414,-0.004 -1.09977,-0.13565 -1.36806,-0.29161 z m 2.31064,-1.43931 c 0.0878,-0.22882 0.033,-0.65272 -0.12184,-0.942 -0.15482,-0.28928 -0.46905,-0.48901 -0.6983,-0.44385 -0.22924,0.0452 -0.53781,0.27428 -0.68571,0.50916 -0.1479,0.23488 -0.19416,0.62184 -0.10281,0.8599 0.0913,0.23806 0.45475,0.43284 0.80755,0.43284 0.3528,0 0.7133,-0.18722 0.80111,-0.41605 z m 2.5428,-0.73156 c 0,-0.22277 0.39587,-0.43609 0.99218,-0.53466 0.54571,-0.0902 1.98319,-0.1653 3.1944,-0.16691 1.95563,-0.003 2.19228,0.0489 2.11347,0.46011 -0.0775,0.40442 -0.48179,0.47246 -3.1944,0.53757 -2.52202,0.0605 -3.10565,0.005 -3.10565,-0.29611 z m -34.20313,6.10854 c -0.0815,-0.93399 -0.73893,-3.43839 -1.51062,-5.75468 -0.76702,-2.30226 -2.05741,-5.43563 -2.941941,-7.14376 -1.01872,-1.96724 -2.4028,-4.07141 -3.91582,-5.95312 -1.28709,-1.60073 -3.21855,-3.81019 -4.29214,-4.90991 -1.29189,-1.32335 -2.27432,-2.09381 -2.90523,-2.27839 l -0.95325,-0.2789 -2.672451,2.63723 -2.672449,2.63722 0.403961,0.61653 c 0.273415,0.41728 0.382863,1.13346 0.338676,2.21614 l -0.06528,1.59963 1.038069,1.0224 c 0.570939,0.56232 2.050101,1.83804 3.287028,2.83493 1.23693,0.99689 3.26099,2.72352 4.49792,3.83695 1.23692,1.11344 2.8145,2.27393 3.505726,2.57886 0.69122,0.30494 1.25677,0.67984 1.25677,0.83313 0,0.15328 0.44648,0.77368 0.99218,1.37865 0.54571,0.60497 2.15063,2.15313 3.566491,3.44034 1.41587,1.28722 2.7121,2.3404 2.8805,2.3404 0.21459,0 0.26301,-0.49467 0.16186,-1.65365 z M 90.942159,134.85463 c 0,-0.13693 0.11906,-0.32255 0.26458,-0.41249 0.14552,-0.0899 0.26459,0.0221 0.26459,0.24897 0,0.22687 -0.11907,0.41249 -0.26459,0.41249 -0.14552,0 -0.26458,-0.11203 -0.26458,-0.24897 z m 24.845261,16.18021 c 1.25099,-1.13324 3.21896,-2.81866 4.37327,-3.74538 1.15431,-0.92673 3.95228,-3.3242 6.21771,-5.32771 2.26543,-2.00351 5.00057,-4.45871 6.07809,-5.456 1.8436,-1.70632 1.93946,-1.85001 1.62547,-2.43671 -0.21,-0.39238 -0.26989,-1.02229 -0.16159,-1.69955 0.0946,-0.59185 0.31142,-1.244 0.48174,-1.44921 0.25107,-0.30253 -0.17348,-0.8431 -2.24414,-2.8574 -2.11173,-2.05424 -2.69601,-2.48428 -3.37531,-2.48428 -0.61319,0 -1.15671,0.31354 -2.14336,1.23643 -0.72701,0.68004 -2.1327,2.19808 -3.12376,3.37344 -0.99106,1.17535 -2.49396,3.14904 -3.33979,4.38596 -0.84584,1.23693 -2.10949,3.45424 -2.80812,4.92736 -0.69863,1.47311 -1.70273,3.97342 -2.23134,5.55625 -0.52861,1.58282 -1.05645,2.99692 -1.17297,3.14244 -0.11653,0.14552 -0.34334,1.12082 -0.50402,2.16735 -0.16068,1.04652 -0.29215,2.08831 -0.29215,2.3151 0,0.22679 0.0778,0.41234 0.17287,0.41234 0.0951,0 1.19641,-0.92719 2.4474,-2.06043 z m 9.59831,-15.57194 c -0.13372,-0.23895 -0.18528,-0.65567 -0.11458,-0.92604 0.0707,-0.27038 0.34576,-0.49159 0.61125,-0.49159 0.26548,0 0.56046,0.12583 0.6555,0.27962 0.0951,0.15379 0.0998,0.57051 0.0106,0.92604 -0.0892,0.35553 -0.33265,0.64642 -0.54093,0.64642 -0.20828,0 -0.4881,-0.1955 -0.62182,-0.43445 z m -48.995654,17.06294 c 0,-0.16767 -0.627001,-0.91181 -1.393336,-1.65365 -0.766335,-0.74184 -2.052509,-1.96361 -2.858165,-2.71505 l -1.464829,-1.36625 -1.10298,0.2944 c -0.912794,0.24364 -1.262245,0.21846 -2.026635,-0.14605 -0.578657,-0.27595 -1.125038,-0.83521 -1.462813,-1.4973 -0.296538,-0.58126 -0.539159,-1.41102 -0.539159,-1.84391 0,-0.43288 0.11501,-1.08956 0.255578,-1.45928 0.2316,-0.60916 0.11386,-0.80315 -1.254995,-2.06775 -0.830815,-0.76754 -2.434106,-2.27937 -3.562869,-3.35964 -1.564427,-1.4972 -2.052297,-1.83921 -2.052297,-1.43869 0,0.28898 0.339579,1.53002 0.75462,2.75786 0.415041,1.22785 1.012319,2.73757 1.327283,3.35494 0.314965,0.61738 1.271186,2.05137 2.124936,3.18665 0.85375,1.13527 2.00901,2.46516 2.567244,2.9553 0.558234,0.49013 1.852043,1.43356 2.875131,2.0965 1.023089,0.66295 3.050786,1.65084 4.505994,2.19533 1.455209,0.54448 2.794662,0.9948 2.976563,1.0007 0.181901,0.006 0.330729,-0.12645 0.330729,-0.29411 z m 66.278114,-0.18876 c 1.01865,-0.2665 2.80959,-0.96771 3.97988,-1.55826 1.17028,-0.59054 2.71921,-1.5412 3.44206,-2.11258 0.72285,-0.57138 1.83214,-1.56477 2.46511,-2.20753 0.63296,-0.64276 1.50694,-1.68364 1.94218,-2.31306 0.43523,-0.62943 1.18966,-2.00654 1.6765,-3.06024 0.48684,-1.05371 1.19371,-2.83495 1.57081,-3.95833 0.37711,-1.12337 0.62274,-2.14428 0.54586,-2.26868 -0.0769,-0.12441 -0.58856,0.2073 -1.13706,0.73711 -0.54849,0.52982 -2.14317,2.05657 -3.54373,3.3928 l -2.54648,2.42949 0.39653,1.20447 0.39652,1.20446 -0.62534,1.24698 c -0.43912,0.87566 -0.93174,1.40239 -1.65432,1.76889 -0.90616,0.45961 -1.16994,0.4842 -2.20997,0.20604 l -1.18098,-0.31587 -1.75878,1.67823 c -0.96733,0.92302 -2.41363,2.29249 -3.21399,3.04325 -1.12764,1.05775 -1.3361,1.36528 -0.92605,1.36619 0.29105,6.5e-4 1.36261,-0.21687 2.38125,-0.48336 z m -72.770829,-7.48297 c 0.596444,-0.46916 0.694381,-0.70832 0.561706,-1.3717 -0.08838,-0.4419 -0.356325,-1.01963 -0.595432,-1.28384 -0.239107,-0.26421 -0.660097,-0.48039 -0.935533,-0.48039 -0.275436,0 -0.792765,0.31505 -1.149618,0.7001 -0.356854,0.38505 -0.648825,0.91025 -0.648825,1.1671 0,0.25686 0.366323,0.77526 0.81405,1.15199 0.447728,0.37674 0.907921,0.68498 1.022652,0.68498 0.114731,0 0.533681,-0.25571 0.931,-0.56824 z m 79.298439,-0.13422 c 0.26612,-0.24084 0.48385,-0.6906 0.48385,-0.99947 0,-0.30886 -0.18534,-0.82619 -0.41188,-1.14961 -0.25817,-0.36859 -0.68719,-0.58804 -1.14961,-0.58804 -0.40576,0 -0.94552,0.22959 -1.19947,0.5102 -0.31526,0.34836 -0.40228,0.70507 -0.2743,1.12448 0.10309,0.33785 0.3704,0.82264 0.59402,1.0773 0.22363,0.25466 0.64665,0.46302 0.94006,0.46302 0.29341,0 0.75121,-0.19705 1.01733,-0.43788 z m -80.346349,-4.84342 c 0.291041,0.005 0.814007,0.16625 1.162145,0.3592 l 0.632979,0.35082 2.63116,-2.55506 2.63116,-2.55506 -0.574837,-0.97427 c -0.491777,-0.8335 -0.539033,-1.14215 -0.327047,-2.13609 l 0.247789,-1.1618 -2.782284,-2.86435 -2.782285,-2.86436 -1.140608,-0.0214 c -0.627334,-0.0118 -1.286355,-0.16719 -1.464494,-0.34532 -0.202949,-0.20295 -0.230033,-0.41199 -0.07253,-0.55982 0.147915,-0.13884 0.768546,-0.10123 1.508126,0.0914 0.691224,0.18003 1.25677,0.28237 1.25677,0.22743 0,-0.0549 -0.178618,-0.52738 -0.396929,-1.04987 -0.32606,-0.78037 -0.330695,-0.89502 -0.02596,-0.64211 0.204034,0.16933 0.447983,0.61472 0.542109,0.98975 0.09413,0.37503 0.846048,1.29288 1.670937,2.03967 0.824888,0.74679 2.099011,1.96584 2.831383,2.70901 l 1.331585,1.35121 1.031524,-0.7559 c 0.567338,-0.41575 1.366971,-0.7559 1.776961,-0.7559 0.40999,0 1.156261,0.19591 1.658379,0.43535 l 0.912943,0.43535 2.014818,-1.81041 c 1.108149,-0.99572 2.308709,-2.19572 2.667909,-2.66665 0.3592,-0.47094 0.653091,-1.03482 0.653091,-1.25307 0,-0.21824 -0.506016,-0.80777 -1.124479,-1.31006 -0.618464,-0.50228 -1.992132,-1.4714 -3.052596,-2.15359 -1.060465,-0.68219 -3.501246,-1.99572 -5.423959,-2.91896 -1.922713,-0.92323 -4.38881,-1.97716 -5.480217,-2.34206 -1.091406,-0.36491 -2.758281,-0.86305 -3.704166,-1.10698 -0.945886,-0.24394 -2.850886,-0.60634 -4.233334,-0.80533 -1.382448,-0.199 -3.004978,-0.36559 -3.605624,-0.3702 -0.623271,-0.005 -1.224224,0.15083 -1.399903,0.36251 -0.249707,0.30088 0.387383,1.00293 3.374608,3.71873 2.025336,1.84131 4.054252,3.81051 4.508704,4.37602 0.454451,0.5655 0.712367,1.09858 0.573147,1.18463 -0.13922,0.086 -1.180992,-0.66176 -2.31505,-1.66178 -1.134058,-1.00002 -2.230415,-2.02204 -2.43635,-2.27114 -0.205934,-0.24911 -1.302207,-1.22676 -2.436161,-2.17256 l -2.061736,-1.71964 -0.738838,0.46255 c -0.406361,0.2544 -0.774837,0.48497 -0.818835,0.51238 -0.044,0.0274 0.109107,2.05774 0.340234,4.51185 0.231127,2.45411 0.605197,5.59311 0.831265,6.97556 0.226069,1.38245 0.574037,3.08405 0.773262,3.78135 0.199225,0.69729 0.63506,1.64155 0.968523,2.09835 0.333463,0.45679 1.847382,2.0294 3.364265,3.49469 1.516884,1.46528 3.124228,3.02217 3.571876,3.45976 l 0.813905,0.7956 0.79375,-0.46388 c 0.436563,-0.25514 1.031875,-0.46012 1.322917,-0.45551 z m -5.335764,-7.59509 c 0.09701,-0.097 0.255764,-0.097 0.352778,0 0.09701,0.097 0.01764,0.17639 -0.176389,0.17639 -0.194028,0 -0.273403,-0.0794 -0.176389,-0.17639 z m 84.537643,7.58635 c 0.34135,-8.9e-4 0.9607,0.19926 1.37635,0.44478 l 0.75571,0.44641 3.48971,-3.45384 c 2.07689,-2.05553 3.41469,-3.57524 3.3044,-3.7537 -0.10193,-0.16492 -0.65455,-0.29986 -1.22805,-0.29986 -0.57349,0 -1.04271,-0.10005 -1.04271,-0.22233 0,-0.12228 0.62507,-0.36068 1.38906,-0.52979 0.76398,-0.16911 1.74154,-0.33696 2.17234,-0.37299 l 0.78328,-0.0655 0.59477,-2.91042 c 0.32713,-1.60073 0.8389,-5.05354 1.13727,-7.67291 0.29837,-2.61938 0.57868,-5.07851 0.62292,-5.46473 0.0649,-0.56674 -0.0833,-0.78031 -0.7682,-1.10691 l -0.84862,-0.40468 -2.73985,2.42616 c -1.50692,1.33439 -3.64787,3.32078 -4.75768,4.4142 -1.3936,1.37302 -2.07653,2.2593 -2.20756,2.86488 -0.12016,0.55534 -0.42236,0.98284 -0.82418,1.16592 -0.42879,0.19537 -0.82405,0.20448 -1.21933,0.0281 -0.49444,-0.22062 -0.73026,-0.11452 -1.52513,0.68617 -0.51713,0.52092 -1.86194,1.82229 -2.98845,2.89192 l -2.04819,1.94479 0.16466,1.40099 c 0.12177,1.03606 0.0506,1.62966 -0.27328,2.27886 l -0.43794,0.87787 2.57105,2.54794 2.57105,2.54794 0.67798,-0.35381 c 0.37289,-0.1946 0.95727,-0.35454 1.29862,-0.35544 z m 2.42207,-6.71546 c 0,-0.21684 0.228,-0.46662 0.50667,-0.55507 0.27866,-0.0885 0.81963,-0.0823 1.20215,0.0137 0.38251,0.096 0.65127,0.30918 0.59725,0.47371 -0.054,0.16454 -0.595,0.33577 -1.20215,0.38051 -0.83801,0.0618 -1.10392,-0.0136 -1.10392,-0.3129 z m -39.50985,1.81439 c 0.63049,-0.65801 1.14527,-1.45295 1.14527,-1.76854 0,-0.31531 -0.24339,-1.07605 -0.54086,-1.69055 -0.35075,-0.72454 -0.85307,-1.26543 -1.42905,-1.53875 -0.48851,-0.23181 -1.14191,-0.42147 -1.45201,-0.42147 -0.31011,0 -0.94696,0.16216 -1.41523,0.36036 -0.46826,0.1982 -1.06484,0.60015 -1.32572,0.89323 -0.26089,0.29307 -0.54181,0.94866 -0.62428,1.45685 -0.0986,0.60746 0.0113,1.26387 0.32087,1.91614 0.25894,0.54568 0.83752,1.21577 1.28573,1.48909 0.44821,0.27331 1.28182,0.49738 1.85246,0.49793 0.88548,8.4e-4 1.2054,-0.1742 2.18282,-1.19429 z m 27.98601,-0.45837 c 0.37207,-0.32742 0.7452,-0.95438 0.82918,-1.39324 0.11171,-0.58379 -0.003,-0.99576 -0.42718,-1.5351 -0.49361,-0.62753 -0.74264,-0.72529 -1.67432,-0.65728 -0.94144,0.0687 -1.15614,0.2034 -1.53555,0.96322 -0.3433,0.6875 -0.38107,1.05549 -0.17038,1.6599 0.1489,0.42711 0.58551,0.94758 0.97026,1.1566 0.38475,0.20901 0.84173,0.38479 1.01552,0.39062 0.17378,0.006 0.62039,-0.2573 0.99247,-0.58472 z m -58.609938,-0.36641 c 0.301603,-0.38343 0.54837,-0.9879 0.54837,-1.34327 0,-0.36137 -0.340853,-0.98698 -0.773398,-1.41953 -0.425368,-0.42537 -0.970308,-0.7734 -1.210977,-0.7734 -0.240669,0 -0.785608,0.34803 -1.210978,0.7734 -0.425369,0.42537 -0.773397,0.96706 -0.773397,1.20377 0,0.2367 0.176088,0.77088 0.391308,1.18707 0.215219,0.41619 0.542641,0.81759 0.727604,0.89201 0.184963,0.0744 0.655076,0.14471 1.044697,0.1562 0.466531,0.0138 0.89563,-0.21714 1.256771,-0.67625 z m 64.198008,-7.51968 c 1.26235,-1.07172 2.5882,-2.41275 2.94634,-2.98007 0.57369,-0.9088 0.74302,-1.01312 1.42342,-0.87704 0.4653,0.0931 0.77226,0.0428 0.77226,-0.12642 0,-0.15448 0.74414,-1.0615 1.65365,-2.01561 0.9095,-0.95411 2.98583,-2.84842 4.61406,-4.20958 1.62824,-1.36116 3.04066,-2.60466 3.13872,-2.76333 0.0981,-0.15867 0.0521,-0.41467 -0.10211,-0.56889 -0.19748,-0.19749 -1.24302,-0.18606 -3.53559,0.0386 -1.79035,0.17547 -4.56487,0.66085 -6.1656,1.07863 -1.60073,0.41777 -3.92245,1.13079 -5.15938,1.58449 -1.23693,0.4537 -3.69183,1.52807 -5.45534,2.38748 -1.76351,0.85942 -4.0257,2.11322 -5.02709,2.78623 -1.00138,0.67302 -2.08858,1.51865 -2.41601,1.87919 -0.32742,0.36054 -0.59231,0.91678 -0.58864,1.23608 0.004,0.35843 0.89102,1.52972 2.318,3.0613 l 2.31133,2.48074 1.35898,-0.48266 1.35897,-0.48267 1.08705,0.49019 c 0.59787,0.26961 1.22391,0.6551 1.39118,0.85665 0.25023,0.30151 0.43498,0.20773 1.04238,-0.52915 0.40603,-0.49259 1.77107,-1.77248 3.03342,-2.8442 z m -74.497554,-1.44047 c 0,-0.0728 -0.05953,-0.1323 -0.132292,-0.1323 -0.07276,0 -0.132293,0.0595 -0.132293,0.1323 0,0.0728 0.05953,0.13229 0.132293,0.13229 0.07276,0 0.132292,-0.0595 0.132292,-0.13229 z m 58.072004,-3.00264 c -0.0512,-0.0512 -0.22004,-0.0146 -0.37524,0.0813 -0.1552,0.0959 -0.28219,0.36872 -0.28219,0.60623 0,0.36114 0.0614,0.34783 0.37524,-0.0813 0.20639,-0.28225 0.33337,-0.55505 0.28219,-0.60623 z m -71.830338,-9.03591 c 0.291042,-0.29104 0.529167,-0.78768 0.529167,-1.10364 0,-0.31596 -0.197047,-0.79221 -0.437882,-1.05833 -0.240836,-0.26612 -0.724913,-0.48386 -1.075728,-0.48386 -0.350815,0 -0.87519,0.12702 -1.165279,0.28227 -0.405006,0.21676 -0.516521,0.2014 -0.480424,-0.0661 0.02586,-0.19163 0.02914,-0.58654 0.0073,-0.87758 -0.03603,-0.4801 -0.100275,-0.46033 -0.692807,0.21319 -0.359203,0.4083 -0.653097,0.85478 -0.653097,0.99219 0,0.1374 0.297656,0.24983 0.661458,0.24983 0.511934,0 0.661459,0.13621 0.661459,0.60258 0,0.33143 0.185345,0.86721 0.411878,1.19063 0.234523,0.33483 0.690241,0.58804 1.058333,0.58804 0.355551,0 0.88458,-0.23813 1.175622,-0.52917 z M 163.70257,112.8786 c 0.29104,-0.29104 0.52917,-0.71317 0.52917,-0.93807 0,-0.22489 -0.29225,-0.70114 -0.64944,-1.05833 -0.35718,-0.35719 -0.88432,-0.64943 -1.17142,-0.64943 -0.28709,0 -0.76559,0.30969 -1.06332,0.6882 -0.49521,0.62954 -0.50842,0.75185 -0.1551,1.43511 0.21244,0.41081 0.59623,0.80168 0.85287,0.86861 0.25664,0.0669 0.61544,0.1355 0.79734,0.15239 0.1819,0.0169 0.56886,-0.20744 0.8599,-0.49848 z m -67.257081,-0.3175 c 0.17463,-0.17462 0.3175,-0.62438 0.3175,-0.99946 0,-0.37508 -0.18534,-0.94658 -0.41187,-1.27 -0.22654,-0.32342 -0.60582,-0.58804 -0.84285,-0.58804 -0.23703,0 -0.70653,0.25888 -1.04333,0.57529 -0.3368,0.31641 -0.61236,0.81305 -0.61236,1.10364 0,0.2906 0.19704,0.7461 0.43788,1.01222 0.24083,0.26612 0.7528,0.48385 1.13771,0.48385 0.3849,0 0.8427,-0.14287 1.01732,-0.3175 z m 26.452371,-0.0944 c 0.32342,-0.22653 0.58804,-0.68033 0.58804,-1.00844 0,-0.32811 -0.24276,-0.85714 -0.53947,-1.17563 -0.29671,-0.31848 -0.68694,-0.57905 -0.86717,-0.57905 -0.18024,0 -0.59232,0.18534 -0.91574,0.41188 -0.32342,0.22653 -0.58804,0.68033 -0.58804,1.00844 0,0.32811 0.24277,0.85714 0.53948,1.17562 0.29671,0.31848 0.68694,0.57906 0.86717,0.57906 0.18023,0 0.59231,-0.18535 0.91573,-0.41188 z m 31.78885,84.63677 -0.64143,-0.70636 0.71929,0.50792 c 0.39561,0.27936 0.72303,0.59722 0.7276,0.70636 0.005,0.10914 -0.0305,0.19844 -0.0779,0.19844 -0.0474,0 -0.37481,-0.31786 -0.7276,-0.70636 z m -47.07581,-2.20405 c -0.20121,-0.37597 -0.20121,-0.68236 0,-1.05833 0.15576,-0.29104 0.51295,-0.52917 0.79375,-0.52917 0.2808,0 0.64329,0.24803 0.80553,0.55118 0.23533,0.43971 0.20216,0.65374 -0.16399,1.05833 -0.25243,0.27894 -0.61492,0.50716 -0.80553,0.50716 -0.19061,0 -0.474,-0.23813 -0.62976,-0.52917 z m -0.14074,-4.77184 -0.48734,-0.5385 0.56741,-0.56741 c 0.48615,-0.48615 0.66374,-0.52352 1.24008,-0.26092 0.36997,0.16857 0.67267,0.52336 0.67267,0.78841 0,0.26506 -0.14287,0.6248 -0.3175,0.79943 -0.17462,0.17462 -0.51335,0.3175 -0.75274,0.3175 -0.23938,0 -0.65454,-0.24233 -0.92258,-0.53851 z M 34.321325,177.24266 c -0.218281,-0.0766 -0.605235,-0.32086 -0.859896,-0.54271 -0.292511,-0.25482 -0.463021,-0.78242 -0.463021,-1.43271 0,-0.74011 0.182484,-1.21183 0.649432,-1.67878 0.409373,-0.40937 0.951728,-0.64943 1.467235,-0.64943 0.515507,0 1.057862,0.24006 1.467235,0.64943 0.399888,0.39989 0.649432,0.95338 0.649432,1.44045 0,0.45135 -0.255635,1.07013 -0.595313,1.44099 -0.327422,0.35749 -0.892969,0.70895 -1.256771,0.78104 -0.363802,0.0721 -0.840052,0.0684 -1.058333,-0.008 z m 1.539559,-2.14015 c 0.821626,0 0.03417,-0.87326 -0.634772,-0.79375 -0.395517,0.047 -0.84329,0.28385 -0.99505,0.52632 -0.200168,0.3198 -0.177529,0.5594 0.08245,0.87266 0.197109,0.2375 0.606923,0.39631 0.910699,0.35291 0.412031,-0.0589 -0.02224,-0.95814 0.63667,-0.95814 z m 5.792777,0.84732 c -0.103722,-0.10372 -0.921263,-0.36492 -0.381396,-0.48619 0.118322,-0.0266 0.857576,-0.14337 1.670067,-0.14337 1.063484,0 1.446761,0.0926 1.36838,0.33073 -0.05988,0.1819 -0.639784,0.36599 -1.28867,0.40908 -0.648887,0.0431 -1.264658,-0.007 -1.368381,-0.11025 z m 11.239028,-0.0546 c -0.33601,-0.0979 -0.633666,-0.29711 -0.661458,-0.44263 -0.02779,-0.14553 0.64401,-0.30059 1.492893,-0.3446 1.366865,-0.0708 1.533085,-0.0254 1.453042,0.39688 -0.06053,0.31939 -0.35181,0.49199 -0.881966,0.52264 -0.435371,0.0252 -1.066501,-0.0344 -1.402511,-0.13229 z m 3.549652,-0.19969 c -0.08833,-0.23021 -0.160599,-0.46834 -0.160599,-0.5292 0,-0.0609 0.406981,-0.11065 0.904402,-0.11065 0.497421,0 1.092734,0.0723 1.322917,0.1606 0.230183,0.0883 5.57209,0.25216 5.57209,0.45488 0,0.2591 -5.498787,0.44285 -6.315893,0.44285 -0.815806,0 -1.210197,-0.12476 -1.322917,-0.41851 z m -11.008516,-0.0812 c 0,-0.12932 2.543368,-0.31518 3.064891,-0.41302 0.521523,-0.0978 1.295429,-0.10163 1.719792,-0.008 0.424362,0.0932 0.771567,0.27907 0.771567,0.41303 0,0.13396 -0.773906,0.24356 -1.719791,0.24356 -0.945886,0 -3.836459,-0.10581 -3.836459,-0.23514 z m 114.732555,-7.1924 c -0.47676,-0.37501 -0.69714,-0.79966 -0.69714,-1.34327 0,-0.52579 0.26182,-1.05672 0.77339,-1.56829 0.46624,-0.46624 1.05227,-0.7734 1.47556,-0.7734 0.42946,0 1.01456,0.31239 1.50652,0.80435 0.67064,0.67064 0.77669,0.94265 0.63796,1.63628 -0.0915,0.45757 -0.36202,1.04811 -0.60113,1.31232 -0.27121,0.29969 -0.80398,0.48038 -1.41638,0.48038 -0.59247,0 -1.25803,-0.2174 -1.67878,-0.54837 z m 2.27005,-1.19037 c 0.25093,-0.55074 0.23724,-0.72715 -0.0718,-0.92571 -0.21001,-0.13491 -0.55906,-0.21432 -0.77567,-0.17645 -0.21661,0.0379 -0.43504,0.2828 -0.4854,0.54429 -0.0504,0.26149 -0.0257,0.64708 0.0548,0.85686 0.0805,0.20978 0.33124,0.38142 0.55721,0.38142 0.22597,0 0.55036,-0.30618 0.72087,-0.68041 z M 57.516464,156.88763 c -0.09701,-0.097 -0.176389,-0.50523 -0.176389,-0.90714 0,-0.40192 0.192433,-0.92319 0.427628,-1.15838 0.373187,-0.37319 0.499499,-0.38016 0.992187,-0.0547 0.310508,0.20509 0.603466,0.6337 0.651017,0.95245 0.04755,0.31876 -0.05632,0.7516 -0.230835,0.96187 -0.174509,0.21027 -0.580524,0.38231 -0.902254,0.38231 -0.321731,0 -0.66434,-0.0794 -0.761354,-0.17639 z m 101.308806,-0.50537 c -0.24244,-0.24244 -0.40407,-0.63471 -0.35918,-0.87171 0.0466,-0.24625 0.39311,-0.46685 0.80847,-0.51477 0.49436,-0.057 0.78215,0.0602 0.89975,0.36669 0.0951,0.24781 0.0561,0.63565 -0.0866,0.86187 -0.14269,0.22622 -0.38595,0.45348 -0.54056,0.50501 -0.15461,0.0515 -0.47948,-0.10465 -0.72192,-0.34709 z m 20.20278,-21.78747 c -0.53009,-0.5301 -0.7734,-1.03773 -0.7734,-1.61364 0,-0.5988 0.23613,-1.06081 0.82173,-1.60785 0.61891,-0.57815 1.07902,-0.76762 1.86411,-0.76762 0.75395,0 1.22208,0.17971 1.69181,0.64944 0.4112,0.4112 0.64944,0.95139 0.64944,1.4726 0,0.45274 -0.13851,1.08323 -0.3078,1.40109 -0.1693,0.31785 -0.49672,0.72296 -0.72761,0.90023 -0.23089,0.17727 -0.87545,0.3261 -1.43234,0.33073 -0.77306,0.006 -1.19546,-0.1745 -1.78594,-0.76498 z m 2.63835,-0.91286 c 0.16585,-0.19984 0.21888,-0.58679 0.11785,-0.8599 -0.10104,-0.2731 -0.30504,-0.57754 -0.45333,-0.67653 -0.1483,-0.099 -0.4844,-0.065 -0.74691,0.0755 -0.2625,0.14049 -0.47727,0.52905 -0.47727,0.86348 0,0.33443 0.0794,0.68743 0.17638,0.78444 0.097,0.097 0.3801,0.17639 0.62907,0.17639 0.24897,0 0.58836,-0.1635 0.75421,-0.36334 z m -8.50498,-0.0502 c -0.10914,-0.11212 -0.19843,-0.43935 -0.19843,-0.72718 0,-0.48533 0.1276,-0.51141 1.75745,-0.35921 0.96659,0.0903 1.82186,0.22852 1.90059,0.30725 0.0787,0.0787 0.0192,0.26707 -0.13226,0.41854 -0.15147,0.15147 -0.91744,0.34044 -1.70216,0.41992 -0.78471,0.0795 -1.51605,0.0528 -1.62519,-0.0593 z m -6.96359,-0.40982 c -0.1,-0.16179 -0.0177,-0.40643 0.18282,-0.54364 0.20055,-0.13721 1.13853,-0.18428 2.08442,-0.10459 0.94588,0.0797 2.04721,0.14573 2.4474,0.14677 0.46953,0.001 0.7276,0.14264 0.7276,0.39875 0,0.32616 -0.46864,0.39688 -2.63022,0.39688 -1.64441,0 -2.69836,-0.11026 -2.81202,-0.29417 z m -122.351505,-1.0508 c 0,-0.32331 0.136741,-0.50568 0.330729,-0.44109 0.181901,0.0606 0.369225,0.30861 0.416276,0.55121 0.05063,0.26108 -0.08434,0.4411 -0.330729,0.4411 -0.245437,0 -0.416276,-0.22622 -0.416276,-0.55122 z m 0.181901,-4.38216 c -0.100045,-0.10005 -0.181901,-0.40018 -0.181901,-0.66697 0,-0.31411 0.192982,-0.48507 0.547569,-0.48507 0.411563,0 0.526569,0.14272 0.463021,0.57459 -0.0465,0.31602 -0.211052,0.61616 -0.365668,0.66697 -0.154616,0.0508 -0.362975,0.0105 -0.463021,-0.0895 z m -0.822184,-7.47864 c -0.265542,-0.29342 -0.421616,-0.81009 -0.371736,-1.23061 0.04729,-0.39866 0.383634,-0.94339 0.747436,-1.21051 0.419955,-0.30836 0.88268,-0.42638 1.267367,-0.32327 0.333249,0.0893 0.779331,0.49778 0.991292,0.90767 0.27133,0.52469 0.313344,0.93473 0.141964,1.38549 -0.133881,0.35213 -0.440872,0.71601 -0.682203,0.80862 -0.24133,0.0926 -0.708248,0.16838 -1.037594,0.16838 -0.329347,0 -0.804783,-0.2276 -1.056526,-0.50577 z m 1.830157,-0.81478 c 0.09196,-0.28974 0.09296,-0.64693 0.0022,-0.79375 -0.09074,-0.14682 -0.399819,-0.26695 -0.68684,-0.26695 -0.287021,0 -0.590388,0.17859 -0.674151,0.39687 -0.08376,0.21828 -0.08376,0.57547 0,0.79375 0.08376,0.21828 0.386134,0.39688 0.671936,0.39688 0.28649,0 0.59466,-0.23637 0.686841,-0.5268 z m 127.548811,0.37561 c -0.22868,-0.22868 -0.41577,-0.50358 -0.41577,-0.61089 0,-0.10732 0.17162,-0.42623 0.38137,-0.70871 0.30517,-0.41096 0.477,-0.45505 0.8599,-0.22065 0.26318,0.16112 0.51811,0.49426 0.56651,0.74032 0.0484,0.24605 -0.0555,0.62025 -0.23083,0.83154 -0.17536,0.21129 -0.41481,0.38416 -0.53212,0.38416 -0.11731,0 -0.40038,-0.1871 -0.62906,-0.41577 z M 38.743245,175.94983 c -0.103722,-0.10372 -0.921263,-0.36492 -0.381396,-0.48619 0.118322,-0.0266 0.857576,-0.14337 1.670067,-0.14337 1.063484,0 2.218,0.0926 2.139619,0.33073 -0.05988,0.1819 -1.411023,0.36599 -2.059909,0.40908 -0.648887,0.0431 -1.264658,-0.007 -1.368381,-0.11025 z"
       id="path1" /></g></svg>
