<?xml version="1.0" encoding="UTF-8" standalone="no"?>
<!-- Created with Inkscape (http://www.inkscape.org/) -->

<svg
   version="1.1"
   id="svg1"
   width="830.89722"
   height="632.55786"
   viewBox="0 0 830.89722 632.55786"
   xmlns="http://www.w3.org/2000/svg"
   xmlns:svg="http://www.w3.org/2000/svg">
  <defs
     id="defs1" />
  <path
     d="m 755.2182,14.850325 c -18.58864,-0.36612 -41.34806,3.93886 -68.3457,12.84766 -83.63642,27.59871 -171.69436,100.205075 -234.34766,193.226565 -10.94816,16.25475 -10.76481,15.36719 -5.76367,27.8457 4.6236,11.53651 6.53725,20.22646 5.83399,26.49805 -2.3185,20.67596 99.73745,-59.77476 102.56445,-80.85156 1.30247,-9.71064 11.88127,-13.66987 18.95117,-7.09375 7.67501,7.13895 2.49161,19.19531 -8.25195,19.19531 -5.3723,0 -10.89777,4.98412 -65.03321,58.66211 -24.54595,24.33854 -24.54429,24.33789 -36.63085,24.33789 -13.58207,0 -12.21838,-2.42499 -13.9336,24.75 -0.64696,10.25 -0.6464,10.25 16.98242,10.25 12.9448,0 17.62891,-0.31524 17.62891,-1.1875 0,-1.66184 66.93772,-68.73029 70,-70.13672 1.67948,-0.77135 15.3001,-1.3172 41.5,-1.66211 43.85947,-0.57738 42.53375,-0.35209 50.84766,-8.66601 9.76664,-9.76663 12.21411,-23.02829 10.00195,-54.19336 -0.64975,-9.15362 -0.64891,-9.1543 -5.78906,-9.1543 -28.24796,0 -51.36295,-26.92127 -51.91407,-60.46289 -0.17084,-10.39736 2.34086,-11.79319 17.2461,-9.5957 18.75215,2.76464 43.10333,18.58503 43.10742,28.00781 0.001,2.60508 1.69679,-0.26694 3.51172,-5.94922 9.73096,-30.46611 35.37212,-49.643085 69.0957,-51.675785 13.43113,-0.80957 14.39664,-0.009 14.38477,11.92578 -0.0412,41.422715 -16.48523,64.341095 -54.79297,76.367195 -20.41334,6.40844 -21.40805,8.07609 -22.30469,37.38281 -0.78892,25.7859 -2.64275,32.94891 -10.98242,42.44727 -3.0912,3.52068 -3.09109,3.52086 24.22461,3.7871 27.3157,0.26623 27.31545,0.26466 28.27148,2.98438 2.4996,7.11086 6.26995,6.78125 -77.30664,6.78125 -74.58906,0 -74.58974,1.9e-4 -105.3457,30.74414 -16.91577,16.90917 -30.75586,31.05868 -30.75586,31.44336 0,2.39409 162.0727,-0.079 176,-2.68555 C 743.21456,308.04247 791.65446,246.58244 811.80219,146.0183 829.21993,59.080455 810.98414,15.948695 755.2182,14.850325 Z"
     id="path13"
     style="fill:#448aff;fill-opacity:1" />
  <path
     d="m 416.63031,170.65892 c -10.06666,-0.72308 -20.52255,3.95469 -25.88281,15.28516 -11.09613,23.45487 11.68551,47.90923 34.66406,37.20899 9.27649,-4.31971 16.46094,-15.48032 16.46094,-25.56836 0,-16.13684 -12.29933,-25.99611 -25.24219,-26.92579 z"
     id="path12"
     style="fill:#448aff;fill-opacity:1" />
  <path
     d="m 188.98187,384.8015 c -26.733,-0.47783 -52.66552,27.618 -41.0957,58.27149 3.96788,10.51262 54.66936,64.97972 68.48633,73.57226 1.65,1.02611 3.45,1.86905 4,1.87305 2.74056,0.0191 64.32512,-63.61309 67.26367,-69.5 22.57511,-45.22559 -27.21471,-84.08699 -67.01367,-52.30469 -2.75054,2.1965 -2.75054,2.1962 -6,-0.94531 -7.72942,-7.47262 -16.72962,-10.80752 -25.64063,-10.9668 z m 63.90625,12.07617 c 13.27324,0.6177 25.46424,9.12735 27.78516,23.92774 2.64196,16.84756 0.53056,20.37652 -32.54297,54.41601 -15.12117,15.56282 -27.86367,28.29688 -28.3164,28.29688 -1.82898,0 -52.16904,-50.58999 -55.90039,-56.17773 -25.68615,-38.46532 22.43839,-69.70852 51.63085,-33.51954 2.67527,3.31643 3.82364,2.87098 8.54493,-3.3125 7.49708,-9.81894 18.4752,-14.11128 28.79882,-13.63086 z"
     id="path11"
     style="fill:#448aff;fill-opacity:1" />
  <path
     d="m 376.6225,336.2683 c -0.4125,0.1375 -6.15,0.25 -12.75,0.25 -12,0 -12.00017,0 -12.00391,47.25 -0.004,52.84595 0.3187,50.35595 -7.29101,56.16016 -18.76953,14.31622 -24.70508,25.13581 -24.70508,45.02929 0,24.47134 1.54123,21.33887 -22.41211,45.56055 -11.15009,11.275 -20.8089,21.5125 -21.46484,22.75 -2.42557,4.5761 -10.06003,1.12047 -8.78125,-3.97461 0.3181,-1.26742 10.0451,-12.0451 21.61718,-23.95117 21.04016,-21.64739 21.04102,-21.64651 21.04102,-41.16992 0,-24.15307 -0.96402,-21.8781 17.03516,-40.22266 14.96445,-15.25159 14.96484,-15.25109 14.96484,-61.40234 0,-46.15125 0,-46.15295 -84.25,-45.7461 -71.74615,0.34646 -85.2889,0.63991 -91.25,1.97266 -55.56119,12.42208 -85.42498,69.6998 -66.34375,127.24414 11.14117,33.59906 74.29928,103.05434 136.19922,149.77734 5.91937,4.46803 5.75853,4.52717 20.14453,-7.3789 32.71386,-27.07449 77.07112,-78.00778 100.64062,-115.56055 22.2276,-35.41477 30.05072,-61.51026 26.03125,-86.83789 -2.72949,-17.19924 -4.15381,-32.33609 -4.98632,-53 -0.3767,-9.35 -1.02305,-16.8875 -1.43555,-16.75 z m -187.64063,48.5332 c 8.91101,0.15928 17.91121,3.49418 25.64063,10.9668 3.24946,3.14151 3.24946,3.14181 6,0.94531 39.79896,-31.7823 89.58878,7.0791 67.01367,52.30469 -2.93855,5.88691 -64.52311,69.51907 -67.26367,69.5 -0.55,-0.004 -2.35,-0.84694 -4,-1.87305 -13.81697,-8.59254 -64.51845,-63.05964 -68.48633,-73.57226 -11.56982,-30.65349 14.3627,-58.74932 41.0957,-58.27149 z"
     id="path10"
     style="fill:#448aff;fill-opacity:1" />
  <path
     d="m 252.88812,396.87767 c -10.32362,-0.48042 -21.30174,3.81192 -28.79882,13.63086 -4.72129,6.18348 -5.86966,6.62893 -8.54493,3.3125 -29.19246,-36.18898 -77.317,-4.94578 -51.63085,33.51954 3.73135,5.58774 54.07141,56.17773 55.90039,56.17773 0.45273,0 13.19523,-12.73406 28.3164,-28.29688 33.07353,-34.03949 35.18493,-37.56845 32.54297,-54.41601 -2.32092,-14.80039 -14.51192,-23.31004 -27.78516,-23.92774 z"
     id="path9"
     style="fill:#448aff;fill-opacity:1" />
  <path
     d="m 185.51508,185.5183 c -5.41505,0 -5.97458,7.22148 -0.78516,10.13867 1.60245,0.9008 4.78028,4.1633 7.06055,7.25 5.71649,7.73811 11.08203,7.42068 11.08203,-0.6543 0,-3.4149 -13.81528,-16.73437 -17.35742,-16.73437 z"
     id="path8"
     style="fill:#448aff;fill-opacity:1" />
  <path
     d="m 219.67914,138.91088 c -1.77412,-0.51369 -3.65554,1.31844 -11.91016,9.05859 -9.75327,9.1454 -10.244,9.46056 -15.21289,9.75 -8.73777,0.50898 -9.97233,8.47594 -1.52734,9.85547 3.83353,0.62622 5.84375,1.6377 5.84375,2.9375 0,0.48173 0.43822,2.03062 0.97461,3.44141 1.93539,5.09047 9.78091,2.06542 8.6875,-3.34961 -0.28722,-1.42247 -0.82897,-3.38125 -1.20508,-4.35352 -0.70676,-1.82704 1.75687,-4.59687 13.29297,-14.93945 5.87257,-5.26499 6.77423,-8.61191 3.02734,-11.23633 -0.79984,-0.56023 -1.37933,-0.99283 -1.9707,-1.16406 z"
     id="path7"
     style="fill:#448aff;fill-opacity:1" />
  <path
     d="m 184.27289,88.274155 c -2.24423,0.13294 -4.63793,0.73685 -7.12695,1.91797 -7.30428,3.46611 -7.22719,2.77878 -7.25196,65.074225 -0.022,55.24712 -0.0215,55.24707 3.72852,59.40625 7.82921,8.68349 22.32195,10.68884 31.35547,4.33984 2.34638,-1.64909 5.44539,-5.02224 6.88672,-7.49609 2.69596,-4.62726 3.62759,-5.13392 14.62304,-7.94532 10.17656,-2.60202 15.4222,-13.27804 10.85938,-22.10156 -1.79528,-3.47169 -1.62363,-3.44553 -7.78711,-1.23633 -13.1732,4.72173 -14.80111,-6.20374 -1.67188,-11.2207 17.91661,-6.84632 21.18163,-25.00502 6.63868,-36.92187 -4.34664,-3.56175 -4.39853,-3.67767 -4.86719,-10.98047 -0.59372,-9.2513 -3.85478,-15.37385 -10.15234,-19.06446 -6.61207,-3.874925 -7.63477,-3.504385 -7.63477,2.77539 0,13.021 -15.83581,29.3107 -23.56836,24.24414 -4.21105,-2.75919 -3.0058,-6.36361 3.33203,-9.97265 16.77818,-9.55426 8.34635,-31.748955 -7.36328,-30.818365 z m 35.40625,50.636725 c 0.59137,0.17123 1.17086,0.60383 1.9707,1.16406 3.74689,2.62442 2.84523,5.97134 -3.02734,11.23633 -11.5361,10.34258 -13.99973,13.11241 -13.29297,14.93945 0.37611,0.97227 0.91786,2.93105 1.20508,4.35352 1.09341,5.41503 -6.75211,8.44008 -8.6875,3.34961 -0.53639,-1.41079 -0.97461,-2.95968 -0.97461,-3.44141 0,-1.2998 -2.01022,-2.31128 -5.84375,-2.9375 -8.44499,-1.37953 -7.21043,-9.34649 1.52734,-9.85547 4.96889,-0.28944 5.45962,-0.6046 15.21289,-9.75 8.25462,-7.74015 10.13604,-9.57228 11.91016,-9.05859 z m -34.16406,46.60742 c 3.54214,0 17.35742,13.31947 17.35742,16.73437 0,8.07498 -5.36554,8.39241 -11.08203,0.6543 -2.28027,-3.0867 -5.4581,-6.3492 -7.06055,-7.25 -5.18942,-2.91719 -4.62989,-10.13867 0.78516,-10.13867 z m 230.43164,55.04492 c 9.6603,0.58301 18.82102,6.47174 22.47656,18.14453 8.52772,27.23051 -5.46629,157.52113 -21.75586,202.56055 -3.74389,10.35156 -3.97844,10.46213 -7.14844,3.39844 -9.38272,-20.9075 -17.26437,-63.692 -19.55664,-106.14844 -4.15759,-77.00525 -4.53347,-88.41435 -3.12109,-94.89844 3.4378,-15.78253 16.68508,-23.80621 29.10547,-23.05664 z"
     id="path6"
     style="fill:#448aff;fill-opacity:1" />
  <path
     d="m 142.09125,87.660875 c -11.8422,0.89875 -16.87907,12.520455 -4.05078,16.294925 6.77788,1.99427 8.13367,9.46957 1.88476,10.39453 -5.3052,0.78529 -17.89016,-6.61185 -20.02734,-11.77148 -3.45867,-8.349955 -19.26211,1.95617 -21.375,13.93945 -0.86989,4.93356 -0.0385,5.61412 7.71484,6.32031 7.37207,0.67145 9.30302,1.67508 10.79883,5.60938 1.64083,4.3157 -0.95981,5.21054 -12.88672,4.43945 -21.84777,-1.4125 -27.5702,30.24761 -6.41992,35.51953 10.17141,2.53533 12.44041,2.21688 13.44922,-1.88867 3.10883,-12.65209 22.67922,-22.25075 30.50391,-14.96094 4.82253,4.49287 1.32816,8.15308 -6.95703,7.28711 -5.87902,-0.61448 -5.89486,-0.60884 -9.74219,3.43555 -6.47557,6.80723 -6.21375,16.23828 0.45117,16.23828 9.23507,0 19.21797,12.02145 18.26953,22 -0.57692,6.06979 -9.83203,5.156 -9.83203,-0.9707 0,-6.65627 -5.04553,-12.01707 -11.31641,-12.02539 -3.30041,-0.004 -6.69102,-1.62997 -8.38867,-4.01954 -0.90992,-1.28077 -3.26617,-1.82606 -9.5918,-2.2207 -4.61137,-0.28769 -9.29661,-1.01043 -10.4121,-1.60742 -2.75232,-1.473 -3.29102,-0.64742 -3.29102,5.04297 0,11.77708 7.36322,18.65737 21.70508,20.2832 6.72527,0.76239 7.43724,1.29186 11.29492,8.40625 5.06202,9.33544 18.47989,12.11899 26.62891,5.52344 7.72894,-6.25556 7.37109,-3.01011 7.37109,-66.74609 0,-63.177525 0.15263,-62.234495 -10.32031,-64.199225 -1.93729,-0.36344 -3.7692,-0.45262 -5.46094,-0.32422 z"
     id="path5"
     style="fill:#448aff;fill-opacity:1" />
  <path
     d="m 186.61664,76.084705 c -7.27064,-0.33749 -14.85615,1.68812 -19.99414,6.20507 -1.57726,1.38663 -1.92692,1.37908 -3.53711,-0.0781 -9.45557,-8.55717 -29.70653,-7.91668 -38.63086,1.22266 -3.15833,3.23443 -4.68075,3.99063 -9.16406,4.55078 -15.74719,1.96746 -28.41797,15.087015 -28.41797,29.423805 0,3.92609 -0.52701,5.07581 -3.93359,8.57227 -11.08642,11.37889 -13.08471,28.23185 -4.88086,41.16797 2.74573,4.32957 2.91604,5.08344 1.91406,8.42773 -5.4907,18.32634 7.8916,38.35835 27.74609,41.53321 3.25147,0.51993 4.57373,1.31913 5.66211,3.42382 7.45837,14.42291 31.846,18.21532 45.83594,7.12696 4.84339,-3.83885 4.84347,-3.8395 11.20703,0.42773 5.69368,3.81803 9.81177,5.2797 18.94922,6.72656 10.21346,1.61725 26.83266,-6.44642 32.16602,-15.60742 0.45833,-0.78727 3.30898,-2.14781 6.33398,-3.02148 18.25169,-5.27139 28.25641,-24.8407 20.92578,-40.92969 -1.0981,-2.41007 -0.82154,-3.48196 2.64844,-10.31836 7.04373,-13.87725 5.57316,-26.47924 -4.37891,-37.54492 -4.09532,-4.55357 -4.84218,-6.08598 -5.83789,-11.97266 -2.75649,-16.296505 -13.31882,-26.290575 -30.23633,-28.609375 -2.95587,-0.40515 -5.19446,-1.38771 -6.26757,-2.75195 -3.8824,-4.93567 -10.83874,-7.63712 -18.10938,-7.97461 z m -44.52539,11.57617 c 1.69174,-0.1284 3.52365,-0.0392 5.46094,0.32422 10.47294,1.96473 10.32031,1.0217 10.32031,64.199225 0,63.73598 0.35785,60.49053 -7.37109,66.74609 -8.14902,6.59555 -21.56689,3.812 -26.62891,-5.52344 -3.85768,-7.11439 -4.56965,-7.64386 -11.29492,-8.40625 -14.34186,-1.62583 -21.70508,-8.50612 -21.70508,-20.2832 0,-5.69039 0.5387,-6.51597 3.29102,-5.04297 1.11549,0.59699 5.80073,1.31973 10.4121,1.60742 6.32563,0.39464 8.68188,0.93993 9.5918,2.2207 1.69765,2.38957 5.08826,4.01554 8.38867,4.01954 6.27088,0.008 11.31641,5.36912 11.31641,12.02539 0,6.1267 9.25511,7.04049 9.83203,0.9707 0.94844,-9.97855 -9.03446,-22 -18.26953,-22 -6.66492,0 -6.92674,-9.43105 -0.45117,-16.23828 3.84733,-4.04439 3.86317,-4.05003 9.74219,-3.43555 8.28519,0.86597 11.77956,-2.79424 6.95703,-7.28711 -7.82469,-7.28981 -27.39508,2.30885 -30.50391,14.96094 -1.00881,4.10555 -3.27781,4.424 -13.44922,1.88867 -21.15028,-5.27192 -15.42785,-36.93203 6.41992,-35.51953 11.92691,0.77109 14.52755,-0.12375 12.88672,-4.43945 -1.49581,-3.9343 -3.42676,-4.93793 -10.79883,-5.60938 -7.75338,-0.70619 -8.58473,-1.38675 -7.71484,-6.32031 2.11289,-11.98328 17.91633,-22.289405 21.375,-13.93945 2.13718,5.15963 14.72214,12.55677 20.02734,11.77148 6.24891,-0.92496 4.89312,-8.40026 -1.88476,-10.39453 -12.82829,-3.77447 -7.79142,-15.396175 4.05078,-16.294925 z m 42.18164,0.61328 c 15.70963,-0.93059 24.14146,21.264105 7.36328,30.818365 -6.33783,3.60904 -7.54308,7.21346 -3.33203,9.97265 7.73255,5.06656 23.56836,-11.22314 23.56836,-24.24414 0,-6.279775 1.0227,-6.650315 7.63477,-2.77539 6.29756,3.69061 9.55862,9.81316 10.15234,19.06446 0.46866,7.3028 0.52055,7.41872 4.86719,10.98047 14.54295,11.91685 11.27793,30.07555 -6.63868,36.92187 -13.12923,5.01696 -11.50132,15.94243 1.67188,11.2207 6.16348,-2.2092 5.99183,-2.23536 7.78711,1.23633 4.56282,8.82352 -0.68282,19.49954 -10.85938,22.10156 -10.99545,2.8114 -11.92708,3.31806 -14.62304,7.94532 -1.44133,2.47385 -4.54034,5.847 -6.88672,7.49609 -9.03352,6.349 -23.52626,4.34365 -31.35547,-4.33984 -3.75004,-4.15918 -3.75052,-4.15913 -3.72852,-59.40625 0.0248,-62.295445 -0.0523,-61.608115 7.25196,-65.074225 2.48902,-1.18112 4.88272,-1.78503 7.12695,-1.91797 z"
     id="path4"
     style="fill:#448aff;fill-opacity:1" />
  <path
     d="m 93.19086,12.299545 c -47.46258,-0.18602 -80.32527,25.83861 -80.30664,83.71875 0.0344,106.910345 66.57272,209.035635 146.98828,225.603525 10.19432,2.10031 155,4.04357 155,2.08007 0,-18.28619 -33.03515,-30.70249 -82.55273,-31.02929 -58.59509,-0.3867 -58.78287,-0.41433 -54.03907,-7.6543 1.80362,-2.75267 99.52737,-4.03372 108.91211,-1.42773 3.05173,0.84742 7.76714,5.07448 23.41797,20.99414 26.04832,26.49572 67.26437,30.99739 65.77149,7.18359 -1.92315,-30.67752 -0.4011,-27.74872 -14.43946,-27.75977 -12.37318,-0.01 -12.43426,-0.0219 -14.03125,-2.66211 -4.80528,-7.94434 -56.3508,-55.7532 -60.83594,-56.42578 -14.00114,-2.0996 -15.34049,-21.23368 -1.61523,-23.07422 7.77271,-1.04232 13.41211,4.2284 13.41211,12.53516 0,20.70571 73.73977,71.61361 75.44336,52.08399 0.73344,-8.40804 4.28054,-17.28443 9.57617,-23.97071 3.89412,-4.91672 3.97139,-4.74077 -16.36523,-36.97656 C 291.95397,85.727005 172.29515,12.609585 93.19086,12.299545 Z m 93.42578,63.78516 c 7.27064,0.33749 14.22698,3.03894 18.10938,7.97461 1.07311,1.36424 3.3117,2.3468 6.26757,2.75195 16.91751,2.3188 27.47984,12.31287 30.23633,28.609375 0.99571,5.88668 1.74257,7.41909 5.83789,11.97266 9.95207,11.06568 11.42264,23.66767 4.37891,37.54492 -3.46998,6.8364 -3.74654,7.90829 -2.64844,10.31836 7.33063,16.08899 -2.67409,35.6583 -20.92578,40.92969 -3.025,0.87367 -5.87565,2.23421 -6.33398,3.02148 -5.33336,9.161 -21.95256,17.22467 -32.16602,15.60742 -9.13745,-1.44686 -13.25554,-2.90853 -18.94922,-6.72656 -6.36356,-4.26723 -6.36364,-4.26658 -11.20703,-0.42773 -13.98994,11.08836 -38.37757,7.29595 -45.83594,-7.12696 -1.08838,-2.10469 -2.41064,-2.90389 -5.66211,-3.42382 -19.85449,-3.17486 -33.23679,-23.20687 -27.74609,-41.53321 1.00198,-3.34429 0.83167,-4.09816 -1.91406,-8.42773 -8.20385,-12.93612 -6.20556,-29.78908 4.88086,-41.16797 3.40658,-3.49646 3.93359,-4.64618 3.93359,-8.57227 0,-14.33679 12.67078,-27.456345 28.41797,-29.423825 4.48331,-0.56015 6.00573,-1.31635 9.16406,-4.55078 8.92433,-9.13934 29.17529,-9.77983 38.63086,-1.22266 1.61019,1.4572 1.95985,1.46475 3.53711,0.0781 5.13799,-4.51695 12.7235,-6.54256 19.99414,-6.20507 z"
     id="path3"
     style="fill:#448aff;fill-opacity:1" />
  <path
     d="M 89.24359,0.20579476 C 34.42727,1.6015748 -3.0904416,34.719395 0.20062837,104.5183 5.0154004,206.63282 63.7226,303.42548 135.41547,327.44994 c 11.3187,3.79293 11.31935,3.7919 2.13867,8.37109 -54.74871,27.30786 -72.32231,100.1733 -38.0332,157.69727 20.99119,35.21515 107.71604,122.22449 137.10742,137.55664 6.11245,3.18859 8.59262,2.06778 25.96484,-11.7207 37.78631,-29.99133 91.80457,-93.92608 113.16211,-133.93555 5.61018,-10.50967 15.11719,-32.16013 15.11719,-34.42773 0,-2.71967 1.74303,-1.50552 2.375,1.65429 7.95598,39.77994 25.87583,41.79161 36.84961,4.13672 3.85477,-13.22705 3.64259,-13.07766 6.65234,-4.68555 9.95477,27.75708 40.60172,75.03617 67.6875,104.42188 42.78994,46.42336 75.63871,76 84.40821,76 16.11036,0 116.56308,-94.39501 143.31054,-134.66797 38.78592,-58.39898 20.8379,-134.49909 -38.39843,-162.80664 -5.16144,-2.46652 -8.4491,-4.49466 -7.30665,-4.50586 1.14244,-0.0112 6.31745,-1.39959 11.5,-3.08594 C 768.10813,304.62333 816.95465,225.67747 829.39203,115.0183 838.45197,34.409245 806.45919,-4.2275852 736.9682,3.4011048 643.49793,13.662235 543.12889,80.916945 459.65961,189.21752 c -5.54807,7.19857 -5.54799,7.19798 -6.17774,3.25976 -1.20472,-7.53391 -4.69582,-14.8938 -9.625,-20.28711 -4.87524,-5.33429 -4.87698,-5.3329 -2.52343,-12.75195 1.29446,-4.08049 4.24858,-13.41217 6.5625,-20.73633 11.91169,-37.7036 55.1328,-92.325165 67.85156,-85.748045 13.62398,7.04524 26.89084,-11.91207 16.2832,-23.26758 -9.05138,-9.68954 -23.83855,-4.06784 -24.96289,9.49023 -0.24363,2.93789 -0.79282,5.3418 -1.2207,5.3418 -1.69991,0 -18.91998,14.25296 -26.1543,21.64844 -23.25791,23.77616 -35.30801,46.232555 -46.31836,86.316405 -3.11254,11.3314 -2.27924,10.37727 -7.47265,8.54493 -5.35813,-1.89042 -16.25697,-1.8799 -21.5293,0.0195 -4.87481,1.75621 -4.5,1.7438 -4.5,0.13672 0,-28.01166 -30.32413,-80.542545 -63.08789,-109.290995 -8.90558,-7.81417 -9.91211,-9.04565 -9.91211,-12.10352 0,-13.36575 -17.04947,-19.81322 -25.85938,-9.77929 -10.27871,11.7068 1.74999,29.17538 15.99219,23.22461 3.56155,-1.48812 3.56216,-1.48674 12.96485,6.7207 30.71269,26.80858 49.42229,56.453465 56.84179,90.062505 1.21417,5.5 2.66487,11.47645 3.22266,13.28125 0.93079,3.01168 0.72121,3.60415 -2.53906,7.21289 -5.13908,5.68834 -8.74294,11.74207 -10.65235,17.88867 -1.6722,5.38296 -1.6727,5.38269 -9.79883,-6.51172 C 286.42652,63.886905 169.35975,-1.8341852 89.24359,0.20579476 Z M 93.19086,12.299545 c 79.10429,0.31004 198.76311,73.42746 274.33594,193.218755 20.33662,32.23579 20.25935,32.05984 16.36523,36.97656 -5.29563,6.68628 -8.84273,15.56267 -9.57617,23.97071 -1.70359,19.52962 -75.44336,-31.37828 -75.44336,-52.08399 0,-8.30676 -5.6394,-13.57748 -13.41211,-12.53516 -13.72526,1.84054 -12.38591,20.97462 1.61523,23.07422 4.48514,0.67258 56.03066,48.48144 60.83594,56.42578 1.59699,2.64021 1.65807,2.65211 14.03125,2.66211 14.03836,0.0111 12.51631,-2.91775 14.43946,27.75977 1.49288,23.8138 -39.72317,19.31213 -65.77149,-7.18359 -15.65083,-15.91966 -20.36624,-20.14672 -23.41797,-20.99414 -9.38474,-2.60599 -107.10849,-1.32494 -108.91211,1.42773 -4.7438,7.23997 -4.55602,7.2676 54.03907,7.6543 49.51758,0.3268 82.55273,12.7431 82.55273,31.02929 0,1.9635 -144.80568,0.0202 -155,-2.08007 C 79.45694,305.05393 12.91862,202.92864 12.88422,96.018295 12.86562,38.138155 45.72828,12.113525 93.19086,12.299545 Z m 662.02734,2.55078 c 55.76594,1.09837 74.00173,44.23013 56.58399,131.167975 -20.14773,100.56414 -68.58763,162.02417 -137.92969,175.00195 -13.9273,2.60653 -176,5.07964 -176,2.68555 0,-0.38468 13.84009,-14.53419 30.75586,-31.44336 30.75596,-30.74395 30.75664,-30.74414 105.3457,-30.74414 83.57659,0 79.80624,0.32961 77.30664,-6.78125 -0.95603,-2.71972 -0.95578,-2.71815 -28.27148,-2.98438 -27.3157,-0.26624 -27.31581,-0.26642 -24.22461,-3.7871 8.33967,-9.49836 10.1935,-16.66137 10.98242,-42.44727 0.89664,-29.30672 1.89135,-30.97437 22.30469,-37.38281 38.30774,-12.0261 54.75177,-34.94448 54.79297,-76.367195 0.0119,-11.93496 -0.95364,-12.73535 -14.38477,-11.92578 -33.72358,2.0327 -59.36474,21.209675 -69.0957,51.675785 -1.81493,5.68228 -3.51072,8.5543 -3.51172,5.94922 -0.004,-9.42278 -24.35527,-25.24317 -43.10742,-28.00781 -14.90524,-2.19749 -17.41694,-0.80166 -17.2461,9.5957 0.55112,33.54162 23.66611,60.46289 51.91407,60.46289 5.14015,0 5.13931,6.8e-4 5.78906,9.1543 2.21216,31.16507 -0.23531,44.42673 -10.00195,54.19336 -8.31391,8.31392 -6.98819,8.08863 -50.84766,8.66601 -26.1999,0.34491 -39.82052,0.89076 -41.5,1.66211 -3.06228,1.40643 -70,68.47488 -70,70.13672 0,0.87226 -4.68411,1.1875 -17.62891,1.1875 -17.62882,0 -17.62938,0 -16.98242,-10.25 1.71522,-27.17499 0.35153,-24.75 13.9336,-24.75 12.08656,0 12.0849,6.5e-4 36.63085,-24.33789 54.13544,-53.67799 59.66091,-58.66211 65.03321,-58.66211 10.74356,0 15.92696,-12.05636 8.25195,-19.19531 -7.0699,-6.57612 -17.6487,-2.61689 -18.95117,7.09375 -2.827,21.0768 -104.88295,101.52752 -102.56445,80.85156 0.70326,-6.27159 -1.21039,-14.96154 -5.83399,-26.49805 -5.00114,-12.47851 -5.18449,-11.59095 5.76367,-27.8457 62.6533,-93.02149 150.71124,-165.627855 234.34766,-193.226565 26.99764,-8.9088 49.75706,-13.21378 68.3457,-12.84766 z M 416.63031,170.65892 c 12.94286,0.92968 25.24219,10.78895 25.24219,26.92579 0,10.08804 -7.18445,21.24865 -16.46094,25.56836 -22.97855,10.70024 -45.76019,-13.75412 -34.66406,-37.20899 5.36026,-11.33047 15.81615,-16.00824 25.88281,-15.28516 z M 376.6225,336.2683 c 0.4125,-0.1375 1.05885,7.4 1.43555,16.75 0.83251,20.66391 2.25683,35.80076 4.98632,53 4.01947,25.32763 -3.80365,51.42312 -26.03125,86.83789 -23.5695,37.55277 -67.92676,88.48606 -100.64062,115.56055 -14.386,11.90607 -14.22516,11.84693 -20.14453,7.3789 C 174.32803,569.07264 111.16992,499.61736 100.02875,466.0183 80.94752,408.47396 110.81131,351.19624 166.3725,338.77416 c 5.9611,-1.33275 19.50385,-1.6262 91.25,-1.97266 84.25,-0.40685 84.25,-0.40515 84.25,45.7461 0,46.15125 -3.9e-4,46.15075 -14.96484,61.40234 -17.99918,18.34456 -17.03516,16.06959 -17.03516,40.22266 0,19.52341 -8.6e-4,19.52253 -21.04102,41.16992 -11.57208,11.90607 -21.29908,22.68375 -21.61718,23.95117 -1.27878,5.09508 6.35568,8.55071 8.78125,3.97461 0.65594,-1.2375 10.31475,-11.475 21.46484,-22.75 23.95334,-24.22168 22.41211,-21.08921 22.41211,-45.56055 0,-19.89348 5.93555,-30.71307 24.70508,-45.02929 7.60971,-5.80421 7.28701,-3.31421 7.29101,-56.16016 0.004,-47.25 0.004,-47.25 12.00391,-47.25 6.6,0 12.3375,-0.1125 12.75,-0.25 z"
     id="path2"
     style="fill:#448aff;fill-opacity:1" />
  <path
     style="fill:#ffffff;fill-opacity:1"
     d="M 236.62824,630.91455 C 207.23686,615.5824 120.51198,528.57395 99.52079,493.3588 65.23168,435.83483 82.80518,362.96963 137.55389,335.66177 c 9.18068,-4.57919 9.18068,-4.57919 -2.13802,-8.37212 C 63.723,303.26519 5.0154004,206.47332 0.20062737,104.3588 -7.9004686,-67.453885 231.26748,-17.010715 367.04492,181.73032 c 8.12612,11.89441 8.12612,11.89441 9.79832,6.51145 1.90941,-6.1466 5.51443,-12.19969 10.65351,-17.88803 3.26027,-3.60874 3.46895,-4.2018 2.53816,-7.21348 -0.55779,-1.8048 -2.00758,-7.78146 -3.22175,-13.28146 -7.4195,-33.60904 -26.12994,-63.254345 -56.84263,-90.062925 -9.40269,-8.20744 -9.40269,-8.20744 -12.96424,-6.71932 -14.2422,5.95077 -26.27112,-11.51839 -15.99241,-23.22519 8.80991,-10.03393 25.85933,-3.586 25.85933,9.77975 0,3.05787 1.0075,4.28783 9.91308,12.102 32.76376,28.74845 63.08692,81.280495 63.08692,109.292185 0,1.60708 -0.37481,1.61855 4.5,-0.13766 5.27233,-1.89943 16.17213,-1.90862 21.53026,-0.0182 5.19341,1.83234 4.35911,2.78647 7.47165,-8.54493 11.01035,-40.08385 23.06074,-62.540155 46.31865,-86.316315 7.23432,-7.39548 24.4539,-21.6494 26.15381,-21.6494 0.42788,0 0.97731,-2.40374 1.22094,-5.34163 1.12434,-13.55807 15.91069,-19.17943 24.96207,-9.48989 10.60764,11.35551 -2.65826,30.31219 -16.28224,23.26695 -12.71876,-6.57712 -55.94088,48.044325 -67.85257,85.747925 -2.31392,7.32416 -5.26623,16.65522 -6.56069,20.73571 -2.35355,7.41905 -2.35355,7.41905 2.52169,12.75334 4.92918,5.39331 8.42113,12.75261 9.62585,20.28652 0.62975,3.93822 0.62975,3.93822 6.17782,-3.26035 C 543.12973,80.756795 643.49853,13.502795 736.9688,3.2416648 806.45979,-4.3870252 838.45278,34.249745 829.39284,114.8588 816.95546,225.51797 768.10789,304.46415 697.95039,327.29271 c -5.18256,1.68635 -10.35756,3.07528 -11.5,3.08651 -1.14245,0.0112 2.14582,2.03848 7.30726,4.505 59.23633,28.30755 77.18519,104.4079 38.39927,162.80688 -26.74746,40.27296 -127.20077,134.6677 -143.31113,134.6677 -8.7695,0 -41.61838,-29.57664 -84.40832,-76 -27.08578,-29.38571 -57.73223,-76.66425 -67.687,-104.42133 -3.00975,-8.39212 -2.79706,-8.54192 -6.65183,4.68513 -10.97378,37.65489 -28.89404,35.64317 -36.85002,-4.13677 -0.63197,-3.15981 -2.37541,-4.37406 -2.37541,-1.65439 0,2.2676 -9.50632,23.91835 -15.1165,34.42802 -21.35754,40.00947 -75.37576,103.94373 -113.16207,133.93506 -17.37222,13.78848 -19.85395,14.90862 -25.9664,11.72003 z m 19.74497,-22.65803 c 32.71386,-27.07449 77.07104,-78.00755 100.64054,-115.56032 22.2276,-35.41477 30.04984,-61.50977 26.03038,-86.8374 -2.7295,-17.19924 -4.15351,-32.33609 -4.98602,-53 -0.3767,-9.35 -1.0224,-16.8875 -1.4349,-16.75 -0.4125,0.1375 -6.15,0.25 -12.75,0.25 -12,0 -12,0 -12.00374,47.25 -0.004,52.84595 0.31895,50.35684 -7.29076,56.16105 -18.76953,14.31622 -24.7055,25.13524 -24.7055,45.02872 0,24.47134 1.5411,21.33855 -22.41224,45.56023 -11.15009,11.275 -20.80957,21.5125 -21.46551,22.75 -2.42557,4.5761 -10.05971,1.12128 -8.78093,-3.9738 0.3181,-1.26742 10.04644,-12.04572 21.61852,-23.95179 21.04016,-21.64739 21.04016,-21.64739 21.04016,-41.1708 0,-24.15307 -0.96363,-21.87785 17.03555,-40.22241 14.96445,-15.25159 14.96445,-15.25159 14.96445,-61.40284 0,-46.15125 0,-46.15125 -84.25,-45.7444 -71.74615,0.34646 -85.2889,0.63911 -91.25,1.97186 -55.56119,12.42208 -85.42538,69.69984 -66.34415,127.24418 11.14117,33.59906 74.3,103.05373 136.19994,149.77673 5.91937,4.46803 5.75821,4.52706 20.14421,-7.37901 z m -40,-91.77085 c -13.81697,-8.59254 -64.51916,-63.05878 -68.48704,-73.5714 -15.42643,-40.87131 35.81885,-77.19615 66.73651,-47.30568 3.24946,3.14151 3.24946,3.14151 6,0.94501 39.79896,-31.7823 89.58976,7.07961 67.01465,52.3052 -2.93855,5.88691 -64.52356,69.51855 -67.26412,69.49948 -0.55,-0.004 -2.35,-0.8465 -4,-1.87261 z m 31.75819,-41.42289 c 33.07353,-34.0395 35.18498,-37.57022 32.54302,-54.41778 -4.12609,-26.31181 -39.44819,-32.73838 -56.58439,-10.29507 -4.72129,6.18348 -5.86879,6.62828 -8.54405,3.31185 -29.19246,-36.18898 -77.31813,-4.94507 -51.63198,33.52025 3.73135,5.58774 54.07223,56.17677 55.90121,56.17677 0.45273,0 13.19502,-12.73321 28.31619,-28.29602 z m 347.84177,140.11855 c 39.15654,-28.27677 100.61596,-88.61807 124.20912,-121.9494 23.2228,-32.8081 26.52543,-78.22349 7.99002,-109.87313 -10.02983,-17.12617 -21.91783,-28.16009 -39.7991,-36.93975 -37.79881,-18.55913 -238.72317,-15.27668 -239.75023,3.91674 -0.41263,7.71106 -1.89417,21.78327 -3.29232,31.27156 -5.71406,38.77755 -5.93312,40.76014 -4.71853,42.705 0.63551,1.01761 1.88277,4.65695 2.7717,8.08742 11.81101,45.58018 63.81258,117.23964 121.57197,167.52919 22.91025,19.94734 23.8655,20.41707 31.01737,15.25237 z M 518.96961,480.15856 c -5.68647,-3.07499 -6.56866,-5.77875 -6.93787,-21.26324 -0.34147,-14.32116 -0.34147,-14.32116 -7.37056,-14.71834 -16.57151,-0.93638 -16.77557,-17.81818 -0.21539,-17.81818 7.42742,0 7.42742,0 7.5035,-13.75 0.12152,-21.96392 1.90331,-24.24689 18.92392,-24.24689 17.50133,0 19.41702,2.39452 19.39825,24.24689 -0.0127,14.75 -0.0127,14.75 43.79454,14.75 43.80721,0 43.80721,0 43.80876,-14.75 0.002,-22.37572 2.07611,-24.80329 20.54165,-24.04635 16.27181,0.66701 18.25161,3.41874 18.37995,25.54635 0.0768,13.25 0.0768,13.25 4.14259,13.25 5.1827,0 7.35601,1.18978 8.87589,4.85909 2.34421,5.65942 -2.57925,11.14091 -10.00673,11.14091 -2.9349,0 -2.9349,0 -2.9349,14.09887 0,21.78634 -1.7413,23.90357 -19.65429,23.89739 -17.9827,-0.006 -19.34571,-1.98216 -19.34571,-28.04548 0,-24.57415 -86.3907,-21.42926 -87.38974,3.18126 -0.71753,17.67572 -1.6643,21.83416 -5.32327,23.38109 -3.44567,1.45676 -23.61847,1.67753 -26.19059,0.28663 z m 19.66673,-45.04976 c -0.26313,-34.25 -0.26313,-34.25 -7.55538,-34.25 -6.81436,0 -12.45136,63.55675 -6,67.64956 11.50344,7.29789 13.82411,1.57991 13.55538,-33.39956 z m 126,0 c -0.26313,-34.25 -0.26313,-34.25 -7.51313,-34.54381 -7.25,-0.29381 -7.25,-0.29381 -7.25,34.25 0,34.54381 0,34.54381 7.51313,34.54381 7.51313,0 7.51313,0 7.25,-34.25 z m -247.9682,25.99927 c 16.28957,-45.03942 30.28271,-175.32835 21.75499,-202.55886 -8.35553,-26.68066 -45.46973,-23.14765 -51.58137,4.91018 -1.41238,6.48409 -1.03721,17.89416 3.12038,94.89941 2.29227,42.45644 10.17543,85.2409 19.55815,106.1484 3.17,7.06369 3.40396,6.95243 7.14785,-3.39913 z M 314.87321,323.54245 c 0,-18.28619 -33.03482,-30.70352 -82.5524,-31.03032 -58.59509,-0.3867 -58.78336,-0.41336 -54.03956,-7.65333 1.80362,-2.75267 99.52836,-4.03377 108.9131,-1.42778 3.05173,0.84742 7.76707,5.07477 23.4179,20.99443 26.04832,26.49572 67.26319,30.99715 65.77031,7.18335 -1.92315,-30.67752 -0.39985,-27.74873 -14.43821,-27.75978 -12.37318,-0.01 -12.43604,-0.0217 -14.03303,-2.6619 -4.80528,-7.94434 -56.35014,-55.75257 -60.83528,-56.42515 -14.00114,-2.0996 -15.34084,-21.23421 -1.61558,-23.07475 7.77271,-1.04232 13.41275,4.22892 13.41275,12.53568 0,20.70571 73.74058,71.61315 75.44417,52.08353 0.73344,-8.40804 4.27934,-17.28552 9.57497,-23.9718 3.89412,-4.91672 3.97232,-4.74004 -16.3643,-36.97583 C 246.61153,13.692725 12.83577,-58.488235 12.88544,95.858795 12.91984,202.76914 79.45765,304.89436 159.87321,321.46225 c 10.19432,2.10031 155,4.0437 155,2.0802 z m -125.5,-88.88665 c -9.13745,-1.44686 -13.25599,-2.90891 -18.94967,-6.72694 -6.36356,-4.26723 -6.36356,-4.26723 -11.20695,-0.42838 -13.98994,11.08836 -38.37687,7.29696 -45.83524,-7.12594 -1.08838,-2.10469 -2.41082,-2.90447 -5.66229,-3.4244 -19.85449,-3.17486 -33.23612,-23.20588 -27.74542,-41.53222 1.00198,-3.34429 0.83062,-4.09839 -1.91511,-8.42796 -8.20385,-12.93612 -6.2058,-29.79012 4.88062,-41.16901 3.40658,-3.49646 3.93406,-4.64577 3.93406,-8.57186 0,-14.33679 12.67078,-27.455835 28.41797,-29.423315 4.48331,-0.56015 6.00492,-1.31573 9.16325,-4.55016 8.92433,-9.13934 29.17667,-9.78081 38.63224,-1.22364 1.61019,1.4572 1.95928,1.46493 3.53654,0.0783 10.27598,-9.03391 30.33815,-8.10266 38.10295,1.76868 1.07311,1.36424 3.31255,2.34772 6.26842,2.75287 16.91751,2.3188 27.48032,12.31322 30.23681,28.609725 0.99571,5.88668 1.74275,7.41865 5.83807,11.97222 9.95207,11.06568 11.42135,23.6668 4.37762,37.54405 -3.46998,6.8364 -3.74523,7.90944 -2.64713,10.31951 7.33063,16.08899 -2.67505,35.659 -20.92674,40.93039 -3.025,0.87367 -5.875,2.23262 -6.33333,3.01989 -5.33336,9.161 -21.95321,17.22542 -32.16667,15.60817 z m -38.87062,-15.88475 c 7.72894,-6.25556 7.37062,-3.01067 7.37062,-66.74665 0,-63.177525 0.15181,-62.233295 -10.32113,-64.198025 -15.49829,-2.9075 -24.17093,11.65617 -9.51003,15.969855 6.77788,1.99427 8.13245,9.46967 1.88354,10.39463 -5.3052,0.78529 -17.88998,-6.61155 -20.02716,-11.77118 -3.45867,-8.349955 -19.26215,1.95584 -21.37504,13.93912 -0.86989,4.93356 -0.0384,5.61479 7.71498,6.32098 7.37207,0.67145 9.3022,1.6739 10.79801,5.6082 1.64083,4.3157 -0.95946,5.21176 -12.88637,4.44067 -21.84777,-1.4125 -27.56933,30.24704 -6.41905,35.51896 10.17141,2.53533 12.43979,2.21674 13.4486,-1.88881 3.10883,-12.65209 22.6804,-22.25085 30.50509,-14.96104 4.82253,4.49287 1.32726,8.15391 -6.95793,7.28794 -5.87902,-0.61448 -5.89496,-0.60886 -9.74229,3.43553 -6.47557,6.80723 -6.21325,16.23757 0.45167,16.23757 9.23507,0 19.21822,12.02145 18.26978,22 -0.57692,6.06979 -9.83267,5.15662 -9.83267,-0.97008 0,-6.65627 -5.04486,-12.01786 -11.31574,-12.02618 -3.30041,-0.004 -6.69266,-1.62918 -8.39031,-4.01874 -0.90992,-1.28077 -3.26473,-1.82604 -9.59036,-2.22068 -4.61137,-0.28769 -9.29698,-1.01153 -10.41247,-1.60852 -2.75232,-1.473 -3.29112,-0.6474 -3.29112,5.04299 0,11.77708 7.36282,18.65786 21.70468,20.28369 6.72527,0.76239 7.43764,1.2926 11.29532,8.40699 5.06202,9.33544 18.48036,12.11833 26.62938,5.52278 z m 54.47512,0.0819 c 2.34638,-1.64909 5.4454,-5.02241 6.88673,-7.49626 2.69596,-4.62726 3.62792,-5.1336 14.62337,-7.945 10.17656,-2.60202 15.42254,-13.27904 10.85972,-22.10256 -1.79528,-3.47169 -1.62344,-3.44443 -7.78692,-1.23523 -13.1732,4.72173 -14.80066,-6.20425 -1.67143,-11.22121 17.9166,-6.84632 21.18139,-25.00403 6.63844,-36.92088 -4.34664,-3.56175 -4.39813,-3.67792 -4.86679,-10.98072 -0.59372,-9.2513 -3.8545,-15.37511 -10.15206,-19.06572 -6.61207,-3.874925 -7.63556,-3.502685 -7.63556,2.77709 0,13.021 -15.83512,29.31052 -23.56767,24.24396 -4.21105,-2.75919 -3.00691,-6.36474 3.33092,-9.97378 19.17506,-10.91915 5.42318,-38.348645 -14.48898,-28.899705 -7.30428,3.46611 -7.22754,2.77754 -7.25231,65.072985 -0.022,55.24712 -0.022,55.24712 3.72804,59.4063 7.82921,8.68349 22.32098,10.68974 31.3545,4.34074 z m -13.18737,-16.10633 c -2.28027,-3.0867 -5.45704,-6.3492 -7.05949,-7.25 -5.18942,-2.91719 -4.63093,-10.13782 0.78412,-10.13782 3.54214,0 17.35824,13.31984 17.35824,16.73474 0,8.07498 -5.36638,8.3912 -11.08287,0.65309 z m 6.05812,-28.95293 c -0.53639,-1.41079 -0.97525,-2.95924 -0.97525,-3.44097 0,-1.2998 -2.01116,-2.31023 -5.84469,-2.93645 -8.44499,-1.37953 -7.20962,-9.3476 1.52815,-9.85658 4.96889,-0.28944 5.46066,-0.6046 15.21393,-9.75 11.00615,-10.3202 10.68073,-10.13512 13.8801,-7.89419 3.74689,2.62442 2.84508,5.97147 -3.02749,11.23646 -11.5361,10.34258 -14.00054,13.11203 -13.29378,14.93907 0.37611,0.97227 0.91885,2.93161 1.20607,4.35408 1.09341,5.41503 -6.75165,8.43906 -8.68704,3.34859 z m 287.02475,149.37722 c 0,-1.66184 66.93772,-68.73066 70,-70.13709 1.67948,-0.77135 15.3001,-1.3167 41.5,-1.66161 43.85947,-0.57738 42.53407,-0.35151 50.84798,-8.66543 9.76664,-9.76663 12.21444,-23.02929 10.00228,-54.19436 -0.64975,-9.15362 -0.64975,-9.15362 -5.7899,-9.15362 -28.24796,0 -51.36198,-26.92036 -51.9131,-60.46198 -0.17084,-10.39736 2.34066,-11.79505 17.2459,-9.59756 18.75215,2.76464 43.10212,18.58676 43.10621,28.00954 10e-4,2.60508 1.69657,-0.26772 3.5115,-5.95 9.73096,-30.46611 35.37295,-49.643265 69.09653,-51.675965 13.43113,-0.80957 14.39627,-0.009 14.3844,11.92596 -0.0412,41.422715 -16.48479,64.340965 -54.79253,76.367065 -20.41334,6.40844 -21.40844,8.07622 -22.30508,37.38294 -0.78892,25.7859 -2.642,32.94849 -10.98167,42.44685 -3.0912,3.52068 -3.0912,3.52068 24.2245,3.78692 27.3157,0.26623 27.3157,0.26623 28.27173,2.98595 2.4996,7.11086 6.26881,6.78028 -77.30778,6.78028 -74.58906,0 -74.58906,0 -105.34502,30.74395 -16.91577,16.90917 -30.75595,31.05869 -30.75595,31.44337 0,2.39409 162.0727,-0.0787 176,-2.68523 C 743.21527,307.88311 791.65602,246.42294 811.80375,145.8588 835.02741,29.941675 794.86379,-8.0968952 686.87321,27.538295 603.23679,55.137005 515.17896,127.74329 452.52566,220.76478 c -10.94816,16.25475 -10.76461,15.36795 -5.76347,27.84646 4.6236,11.53651 6.53653,20.22597 5.83327,26.49756 -2.3185,20.67596 99.73748,-59.77423 102.56448,-80.85103 1.30247,-9.71064 11.88092,-13.67111 18.95082,-7.09499 7.67501,7.13895 2.4925,19.19602 -8.25106,19.19602 -5.3723,0 -10.89701,4.98347 -65.03244,58.66146 -24.54595,24.33854 -24.54595,24.33854 -36.63251,24.33854 -13.58207,0 -12.217,-2.42499 -13.93222,24.75 -0.64696,10.25 -0.64696,10.25 16.98186,10.25 12.9448,0 17.62882,-0.31563 17.62882,-1.18789 z m -59.4619,-100.1777 c 9.27649,-4.31971 16.4619,-15.4797 16.4619,-25.56774 0,-28.6877 -38.8732,-37.5382 -51.12523,-11.63999 -11.09613,23.45487 11.68478,47.90797 34.66333,37.20773 z M 655.37648,163.1088 c -3.86928,-24.45196 -15.30971,-37.17524 -36.66597,-40.77744 -9.0014,-1.51828 -9.45122,2.42653 -2.16491,18.98564 8.22748,18.69807 41.27619,37.24492 38.83088,21.7918 z m 17.80956,0.22793 c 1.88494,-1.11214 9.91784,-4.62648 17.85091,-7.80964 31.34022,-12.57535 41.86214,-26.37102 43.0677,-56.467655 0.31241,-7.79937 0.31241,-7.79937 -3.70951,-7.13229 -30.93367,5.13069 -47.04209,18.291195 -56.40409,46.081835 -2.12714,6.31433 -5.67446,27.34982 -4.61213,27.34982 0.20898,0 1.92219,-0.90993 3.80712,-2.02207 z"
     id="path1" />
</svg>
